<svg width="83" height="80" viewBox="0 0 83 80" fill="none" xmlns="http://www.w3.org/2000/svg">
<path d="M41.0156 0C18.3545 0 0 18.3647 0 41.0156C0 59.1411 11.751 74.5117 28.0444 79.9291C30.0952 80.3154 30.8471 79.0473 30.8471 77.957C30.8471 76.9828 30.813 74.4023 30.7959 70.9843C19.3867 73.4589 16.9805 65.4814 16.9805 65.4814C15.1142 60.7475 12.4175 59.4829 12.4175 59.4829C8.70214 56.9399 12.7046 56.9912 12.7046 56.9912C16.8232 57.2783 18.9868 61.2158 18.9868 61.2158C22.644 67.4877 28.5879 65.6762 30.9326 64.6269C31.3017 61.9746 32.3579 60.1665 33.5302 59.1411C24.4214 58.1157 14.8476 54.5883 14.8476 38.8725C14.8476 34.395 16.437 30.7378 19.0688 27.8667C18.6074 26.831 17.2231 22.6611 19.4277 17.0112C19.4277 17.0112 22.8628 15.9106 30.707 21.2153C33.9883 20.3027 37.4746 19.8515 40.9609 19.831C44.4472 19.8515 47.9336 20.3027 51.2148 21.2153C59.0078 15.9106 62.4428 17.0112 62.4428 17.0112C64.6474 22.6611 63.2631 26.831 62.853 27.8667C65.4677 30.7378 67.0571 34.395 67.0571 38.8725C67.0571 54.6293 57.4697 58.0986 48.3437 59.1069C49.7793 60.3373 51.1123 62.853 51.1123 66.6948C51.1123 72.184 51.061 76.5932 51.061 77.9262C51.061 79.0029 51.7788 80.2846 53.8808 79.8744C70.2905 74.4946 82.0312 59.1137 82.0312 41.0156C82.0312 18.3647 63.6665 0 41.0156 0Z" fill="white"/>
</svg>
