<svg width="80" height="80" viewBox="0 0 80 80" fill="none" xmlns="http://www.w3.org/2000/svg">
<path d="M40 0C29.1333 0 27.7767 0.05 23.51 0.24C19.25 0.44 16.35 1.11 13.8 2.1C11.17 3.12 8.93667 4.49 6.71333 6.71333C4.49 8.93667 3.11667 11.1667 2.1 13.8C1.11 16.35 0.436667 19.25 0.24 23.51C0.04 27.7767 0 29.1333 0 40C0 50.8667 0.05 52.2233 0.24 56.49C0.44 60.7467 1.11 63.65 2.1 66.2C3.10431 68.8695 4.67866 71.2879 6.71333 73.2867C8.71092 75.3228 11.1297 76.8973 13.8 77.9C16.3533 78.8867 19.2533 79.5633 23.51 79.76C27.7767 79.96 29.1333 80 40 80C50.8667 80 52.2233 79.95 56.49 79.76C60.7467 79.56 63.65 78.8867 66.2 77.9C68.8689 76.8944 71.287 75.3203 73.2867 73.2867C75.3234 71.2896 76.8981 68.8707 77.9 66.2C78.8867 63.65 79.5633 60.7467 79.76 56.49C79.96 52.2233 80 50.8667 80 40C80 29.1333 79.95 27.7767 79.76 23.51C79.56 19.2533 78.8867 16.3467 77.9 13.8C76.8952 11.1307 75.3209 8.71243 73.2867 6.71333C71.2905 4.67547 68.8714 3.10063 66.2 2.1C63.65 1.11 60.7467 0.436667 56.49 0.24C52.2233 0.04 50.8667 0 40 0ZM40 7.2C50.6767 7.2 51.95 7.25333 56.1667 7.43667C60.0667 7.62 62.1833 8.26667 63.59 8.82C65.4633 9.54333 66.79 10.41 68.1967 11.8067C69.5933 13.2067 70.46 14.5367 71.1833 16.41C71.73 17.8167 72.3833 19.9333 72.56 23.8333C72.75 28.0533 72.7933 29.32 72.7933 40C72.7933 50.68 72.7433 51.95 72.5467 56.1667C72.3433 60.0667 71.6933 62.1833 71.1433 63.59C70.4926 65.3259 69.4698 66.8982 68.1467 68.1967C66.8538 69.521 65.2825 70.5412 63.5467 71.1833C62.1467 71.73 59.9967 72.3833 56.0967 72.56C51.85 72.75 50.6 72.7933 39.9 72.7933C29.1967 72.7933 27.9467 72.7433 23.7033 72.5467C19.8 72.3433 17.65 71.6933 16.25 71.1433C14.513 70.5007 12.9423 69.4766 11.6533 68.1467C10.3153 66.8625 9.28905 65.2889 8.65333 63.5467C8.10333 62.1467 7.45667 59.9967 7.25333 56.0967C7.10333 51.8967 7.05 50.6 7.05 39.95C7.05 29.2967 7.10333 27.9967 7.25333 23.7467C7.45667 19.8467 8.10333 17.7 8.65333 16.3C9.35333 14.4 10.25 13.1 11.6533 11.6967C13.05 10.3 14.3533 9.4 16.25 8.70333C17.65 8.15 19.7533 7.5 23.6533 7.3C27.9033 7.15 29.1533 7.1 39.85 7.1L40 7.2ZM40 19.46C37.3026 19.46 34.6317 19.9913 32.1397 21.0235C29.6477 22.0557 27.3833 23.5687 25.476 25.476C23.5687 27.3833 22.0557 29.6477 21.0235 32.1397C19.9913 34.6317 19.46 37.3026 19.46 40C19.46 42.6973 19.9913 45.3683 21.0235 47.8603C22.0557 50.3523 23.5687 52.6167 25.476 54.524C27.3833 56.4313 29.6477 57.9443 32.1397 58.9765C34.6317 60.0087 37.3026 60.54 40 60.54C45.4475 60.54 50.672 58.376 54.524 54.524C58.376 50.672 60.54 45.4475 60.54 40C60.54 34.5525 58.376 29.328 54.524 25.476C50.672 21.624 45.4475 19.46 40 19.46ZM40 53.3333C32.6333 53.3333 26.6667 47.3667 26.6667 40C26.6667 32.6333 32.6333 26.6667 40 26.6667C47.3667 26.6667 53.3333 32.6333 53.3333 40C53.3333 47.3667 47.3667 53.3333 40 53.3333ZM66.1533 18.65C66.107 19.8921 65.5811 21.0679 64.686 21.9302C63.7908 22.7926 62.5963 23.2744 61.3533 23.2744C60.1104 23.2744 58.9158 22.7926 58.0207 21.9302C57.1256 21.0679 56.5996 19.8921 56.5533 18.65C56.5533 17.377 57.059 16.1561 57.9592 15.2559C58.8594 14.3557 60.0803 13.85 61.3533 13.85C62.6264 13.85 63.8473 14.3557 64.7474 15.2559C65.6476 16.1561 66.1533 17.377 66.1533 18.65Z" fill="white"/>
</svg>
