<svg width="80" height="80" viewBox="0 0 80 80" fill="none" xmlns="http://www.w3.org/2000/svg">
<path d="M68.1567 68.1733H56.31V49.61C56.31 45.1833 56.22 39.4867 50.1367 39.4867C43.96 39.4867 43.0167 44.3033 43.0167 49.2833V68.1733H31.17V30H42.55V35.2033H42.7033C44.2933 32.2033 48.16 29.0367 53.9367 29.0367C65.94 29.0367 68.16 36.9367 68.16 47.22L68.1567 68.1733ZM17.79 24.7767C16.8863 24.7771 15.9913 24.5993 15.1564 24.2535C14.3214 23.9076 13.5629 23.4005 12.9241 22.7612C12.2854 22.1218 11.779 21.3628 11.434 20.5275C11.0889 19.6922 10.912 18.7971 10.9133 17.8933C10.914 16.5326 11.3181 15.2026 12.0747 14.0716C12.8312 12.9405 13.9061 12.0592 15.1636 11.5391C16.421 11.019 17.8044 10.8834 19.1388 11.1495C20.4733 11.4156 21.6989 12.0715 22.6606 13.0341C23.6223 13.9968 24.277 15.223 24.5418 16.5577C24.8066 17.8924 24.6697 19.2757 24.1483 20.5326C23.627 21.7895 22.7447 22.8636 21.6129 23.619C20.4811 24.3745 19.1507 24.7773 17.79 24.7767ZM23.73 68.1733H11.85V30H23.73V68.1733ZM74.0833 0H5.90333C2.64 0 0 2.58 0 5.76333V74.2367C0 77.4233 2.64 80 5.90333 80H74.0733C77.3333 80 80 77.4233 80 74.2367V5.76333C80 2.58 77.3333 0 74.0733 0H74.0833Z" fill="white"/>
</svg>
