<svg width="99" height="80" viewBox="0 0 99 80" fill="none" xmlns="http://www.w3.org/2000/svg">
<path d="M98.4735 9.52866C94.7797 11.151 90.8666 12.2219 86.86 12.7069C91.0783 10.1776 94.2367 6.21115 95.752 1.53994C91.8425 3.81599 87.5096 5.47279 82.8971 6.39551C79.854 3.14929 75.8216 0.996238 71.4261 0.270692C67.0306 -0.454854 62.5179 0.287707 58.5889 2.38307C54.6598 4.47842 51.5342 7.80932 49.6974 11.8585C47.8606 15.9077 47.4154 20.4486 48.431 24.7761C31.6172 23.9846 16.7151 15.9303 6.74194 3.75447C4.92817 6.82945 3.98212 10.3367 4.00406 13.9044C4.00406 20.9171 7.58057 27.0809 12.9988 30.702C9.78757 30.6001 6.64727 29.7339 3.83962 28.1758V28.426C3.8378 33.0863 5.45221 37.6038 8.40895 41.2119C11.3657 44.82 15.4827 47.2966 20.0614 48.2215C17.0945 49.0145 13.9871 49.1336 10.968 48.57C12.2681 52.5805 14.7905 56.0862 18.1833 58.5982C21.5762 61.1102 25.6703 62.5033 29.8948 62.5831C22.7396 68.1846 13.9051 71.2248 4.8098 71.2157C3.20653 71.2157 1.60738 71.1214 0 70.9409C9.27308 76.8641 20.0553 80.0082 31.0664 80C68.2868 80 88.6154 49.259 88.6154 22.6436C88.6154 21.7865 88.6154 20.9212 88.5538 20.06C92.5248 17.2092 95.9502 13.6699 98.6667 9.61068L98.4735 9.52866Z" fill="white"/>
</svg>
