<svg width="1085" height="814" viewBox="0 0 1085 814" fill="none" xmlns="http://www.w3.org/2000/svg">
<path d="M430.542 191.358C432.712 189.73 434.895 188.129 437.119 186.569" stroke="#DDDDDD" stroke-width="3" stroke-linecap="round" stroke-linejoin="round"/>
<path d="M450.275 177.94C486.49 155.487 528.239 143.564 570.846 143.508C588.684 143.5 606.461 145.6 623.807 149.762" stroke="#DDDDDD" stroke-width="3" stroke-linecap="round" stroke-linejoin="round" stroke-dasharray="11.57 11.57"/>
<path d="M631.334 151.73C633.947 152.453 636.551 153.222 639.146 154.036" stroke="#DDDDDD" stroke-width="3" stroke-linecap="round" stroke-linejoin="round"/>
<path d="M451.346 668.091C449.027 666.734 446.722 665.242 444.457 663.763" stroke="#DDDDDD" stroke-width="3" stroke-linecap="round" stroke-linejoin="round"/>
<path d="M431.288 654.51C383.588 618.762 347.526 565.215 330.762 502.401" stroke="#DDDDDD" stroke-width="3" stroke-linecap="round" stroke-linejoin="round" stroke-dasharray="11.9 11.9"/>
<path d="M328.728 494.559C328.104 491.927 327.512 489.282 326.951 486.623" stroke="#DDDDDD" stroke-width="3" stroke-linecap="round" stroke-linejoin="round"/>
<path d="M818.85 461.47C818.515 464.184 818.144 466.87 817.737 469.529" stroke="#DDDDDD" stroke-width="3" stroke-linecap="round" stroke-linejoin="round"/>
<path d="M814.794 485.89C810.858 504.88 805.08 523.441 797.543 541.31" stroke="#DDDDDD" stroke-width="3" stroke-linecap="round" stroke-linejoin="round" stroke-dasharray="12.25 12.25"/>
<path d="M794.206 548.975C793.076 551.444 791.919 553.891 790.734 556.315" stroke="#DDDDDD" stroke-width="3" stroke-linecap="round" stroke-linejoin="round"/>
<path d="M386.016 561.063L311.503 572.079C310.172 572.27 308.817 571.959 307.702 571.207C306.587 570.455 305.791 569.315 305.468 568.009L296.842 527.743C296.701 527.113 296.694 526.461 296.82 525.828C296.946 525.195 297.203 524.595 297.575 524.067C297.946 523.539 298.424 523.095 298.978 522.763C299.532 522.432 300.149 522.219 300.789 522.14L375.301 511.138C376.633 510.947 377.988 511.258 379.103 512.01C380.218 512.762 381.014 513.902 381.337 515.208L389.963 555.379C390.117 556.014 390.134 556.675 390.014 557.318C389.895 557.961 389.64 558.571 389.267 559.108C388.894 559.645 388.411 560.097 387.851 560.434C387.29 560.771 386.665 560.986 386.016 561.063Z" fill="#F9F9F9" stroke="#EDEDED" stroke-width="2" stroke-linecap="round" stroke-linejoin="round"/>
<path d="M307.869 528.707C308.669 528.557 352.286 542.829 352.286 542.829L372.63 517.161" stroke="#EDEDED" stroke-width="2" stroke-linecap="round" stroke-linejoin="round"/>
<path d="M319.126 558.011L343.403 539.94" stroke="#EDEDED" stroke-width="2" stroke-linecap="round" stroke-linejoin="round"/>
<path d="M363.95 539.94L382.422 545.787" stroke="#EDEDED" stroke-width="2" stroke-linecap="round" stroke-linejoin="round"/>
<path d="M417.332 623.578L397.937 627.228C397.676 627.276 397.433 627.393 397.232 627.567L385.026 638.23C384.817 638.409 384.562 638.526 384.291 638.569C384.019 638.611 383.741 638.578 383.487 638.473C383.233 638.368 383.013 638.194 382.852 637.972C382.69 637.75 382.593 637.487 382.571 637.213L380.496 605.073C380.475 604.802 380.532 604.531 380.659 604.291C380.786 604.051 380.979 603.852 381.215 603.717C381.421 603.598 381.655 603.535 381.893 603.535C382.131 603.535 382.365 603.598 382.571 603.717L417.725 620.811C418.006 620.945 418.237 621.166 418.384 621.441C418.532 621.715 418.587 622.03 418.543 622.339C418.5 622.648 418.358 622.934 418.141 623.157C417.923 623.38 417.639 623.528 417.332 623.578Z" fill="white" stroke="#EDEDED" stroke-width="2" stroke-linecap="round" stroke-linejoin="round"/>
<path d="M417.332 623.578L397.937 627.228C397.676 627.276 397.433 627.393 397.232 627.567L381.215 603.717C381.421 603.598 381.655 603.535 381.893 603.535C382.131 603.535 382.365 603.598 382.571 603.717L417.725 620.811C418.006 620.945 418.237 621.166 418.384 621.441C418.532 621.715 418.587 622.03 418.543 622.339C418.5 622.648 418.358 622.934 418.14 623.157C417.923 623.38 417.639 623.528 417.332 623.578Z" fill="#EDEDED" stroke="#EDEDED" stroke-width="2" stroke-linecap="round" stroke-linejoin="round"/>
<mask id="mask0_1_24" style="mask-type:luminance" maskUnits="userSpaceOnUse" x="190" y="214" width="290" height="224">
<path d="M479.136 234.961V437.484H190.445V234.961C190.443 232.279 190.97 229.622 191.994 227.143C193.019 224.665 194.523 222.412 196.418 220.515C198.314 218.617 200.565 217.112 203.042 216.085C205.519 215.058 208.175 214.53 210.856 214.53H458.724C461.406 214.53 464.061 215.058 466.539 216.085C469.016 217.112 471.267 218.617 473.162 220.515C475.058 222.412 476.561 224.665 477.586 227.143C478.611 229.622 479.138 232.279 479.136 234.961Z" fill="white"/>
</mask>
<g mask="url(#mask0_1_24)">
<path d="M418.756 432.356C424.967 435.476 433.01 429.643 441.948 421.747L432.264 413.064C432.264 413.064 417.074 427.228 418.756 432.356Z" fill="#A7CAF0"/>
<path d="M501.555 395.007L479.136 440.713H431.979L424.127 418.762L450.818 395.007H501.555Z" fill="#FEBD9D"/>
<path d="M465.017 395.007L442.938 429.521" stroke="#EF8A66" stroke-width="0.75" stroke-linecap="round" stroke-linejoin="round"/>
<path d="M456.609 398.575C440.619 407.705 418.756 432.356 418.756 432.356L412.883 444.023L409.465 450.807H293.452C290.739 441.025 288.407 428.286 286.671 417.962C285.314 409.971 284.446 403.432 284.094 400.868L283.945 399.715C280.988 402.333 279.55 402.428 279.55 402.428L274.125 416.768L273.623 418.125C254.365 405.236 219.129 402.957 219.129 402.957L223.863 386.962C222.441 383.674 222.044 380.033 222.723 376.516C223.496 372.514 234.102 353.954 244.79 338.38C249.003 332.044 253.677 326.027 258.773 320.377C259.193 319.943 259.627 319.522 260.061 319.129C272.959 307.258 294.333 308.981 308.384 310.256C310.473 310.446 312.453 310.582 314.297 310.663C318.449 310.881 322.61 310.881 326.761 310.663C330.166 310.487 332.037 310.229 332.037 310.229C332.471 308.248 332.878 306.159 333.285 303.866C335.821 289.038 337.245 269.244 334.98 256.234L370.677 272.174C371.287 278.659 373.674 292.891 375.315 302.252C376.237 307.488 376.902 311.206 376.902 311.206C379.777 310.677 382.49 310.202 385.039 309.768C421.278 303.622 430.609 305.928 440.646 323.606C440.917 324.067 441.175 324.555 441.446 325.071C447.63 337.281 451.848 361.701 454.195 378.958C455.863 390.299 456.609 398.575 456.609 398.575Z" fill="#C3DCF8"/>
<path d="M456.609 398.575C440.93 407.543 419.569 431.447 418.769 432.329C419.054 431.732 423.72 422.073 424.194 418.762C424.669 415.452 423.014 405.657 420.451 396.445L454.357 379.012C455.863 390.299 456.609 398.575 456.609 398.575Z" fill="#C3DCF8"/>
<path d="M335.875 403.853C335.618 416.849 305.183 418.681 286.711 417.962C285.355 409.971 284.487 403.432 284.134 400.868L283.985 399.715C290.698 392.902 296.247 385.033 300.409 376.421C311.259 383.828 297.344 391.439 296.815 395.007C295.378 404.789 336.241 385.293 335.875 403.853Z" fill="#A7CAF0"/>
<path d="M441.581 325.125C431.003 321.449 419.122 321.571 410.889 334.717C392.35 364.319 357.548 387.41 322.733 352.462C317.973 347.556 312.765 343.105 307.177 339.167C286.603 325.084 269.202 327.933 244.871 338.366C249.085 332.031 253.758 326.014 258.854 320.363C259.274 319.929 259.708 319.509 260.142 319.115C273.04 307.244 294.415 308.967 308.466 310.243C310.554 310.432 312.534 310.568 314.379 310.65C318.531 310.868 322.691 310.868 326.843 310.65C330.247 310.473 332.119 310.215 332.119 310.215C332.553 308.235 332.959 306.145 333.366 303.853C335.902 289.024 337.327 269.23 335.062 256.22L370.758 272.161C371.368 278.646 373.755 292.877 375.396 302.238C376.319 307.475 376.983 311.192 376.983 311.192C379.858 310.663 382.571 310.188 385.121 309.754C421.36 303.608 430.691 305.915 440.727 323.592C441.052 324.121 441.31 324.61 441.581 325.125Z" fill="#D0E5F7"/>
<path d="M385.175 309.822C385.066 318.993 384.076 335.707 380.089 347.524C374.935 362.854 368.859 356.627 362.187 350.576C356.151 345.068 334.153 326.74 314.392 310.69C318.544 310.909 322.704 310.909 326.856 310.69C330.26 310.514 332.132 310.256 332.132 310.256C332.566 308.275 332.973 306.186 333.38 303.893C347.715 302.957 364.913 302.035 375.424 302.279C376.346 307.516 377.01 311.233 377.01 311.233C379.859 310.677 382.571 310.256 385.175 309.822Z" fill="#83ADDF"/>
<path d="M371.124 344.878C371.124 344.878 340.582 324.094 326.856 310.677C330.26 310.5 332.132 310.243 332.132 310.243C335.401 295.224 337.679 271.238 335.075 256.247L358.281 266.599L370.772 272.188C371.219 276.977 372.657 286.067 374.027 294.234C375.546 303.269 376.997 311.219 376.997 311.219C378.109 337.566 371.124 344.878 371.124 344.878Z" fill="#FEBD9D"/>
<path d="M418.756 432.356C419.041 431.759 423.706 422.1 424.181 418.789C424.655 415.479 423.001 405.684 420.438 396.472C420.302 395.997 420.166 395.509 420.017 395.034" stroke="#83ADDF" stroke-width="0.75" stroke-linecap="round" stroke-linejoin="round"/>
<path d="M374.013 294.275C349.913 295.753 352.625 269.841 352.828 269.19L358.253 266.639L370.745 272.229C371.206 277.018 372.643 286.107 374.013 294.275Z" fill="#F4A789"/>
<path d="M219.211 402.93C218.533 404.924 218.533 407.095 233.655 411.355L235.987 401.438C235.987 401.438 222.235 397.72 219.211 402.93Z" fill="#A7CAF0"/>
<path d="M227.497 397.707C223.944 409.293 211.548 448.093 211.548 448.093C208.184 462.325 250.377 471.618 265.391 447.442L273.651 408.519C260.001 399.634 243.672 395.809 227.497 397.707Z" fill="#FEBD9D"/>
<path d="M296.87 382.973C296.817 383.05 296.772 383.132 296.734 383.218C294.944 386.08 292.95 388.997 290.78 392.009L290.631 392.212C288.596 394.868 286.375 397.375 283.985 399.715C281.029 402.333 279.591 402.428 279.591 402.428L273.705 418.098C273.108 417.704 272.498 417.311 271.86 416.931C261.119 410.419 246.336 406.837 235.242 404.938C231.593 404.314 228.338 403.88 225.748 403.581C221.76 403.106 219.292 402.944 219.292 402.944L224.025 386.948C222.603 383.66 222.206 380.02 222.886 376.502C223.659 372.5 234.265 353.941 244.952 338.366C249.166 332.031 253.84 326.014 258.935 320.363C259.356 319.929 259.79 319.509 260.224 319.115C278.506 310.555 302.267 312.657 306.946 337.335C307.069 337.946 307.177 338.556 307.258 339.167C309.862 355.596 305.807 368.633 296.87 382.973Z" fill="#C3DCF8"/>
<path d="M307.177 339.167C286.603 325.084 269.202 327.933 244.871 338.366C249.085 332.031 253.758 326.014 258.854 320.363C259.274 319.929 259.708 319.509 260.142 319.115C278.425 310.555 302.186 312.657 306.865 337.335C306.987 337.986 307.096 338.597 307.177 339.167Z" fill="#D0E5F7"/>
<path d="M231.458 390.34C244.193 390.34 256.643 395.55 258.745 396.54" stroke="#83ADDF" stroke-width="0.75" stroke-linecap="round" stroke-linejoin="round"/>
<path d="M283.985 399.715C286.375 397.375 288.596 394.868 290.631 392.212L290.78 392.009C292.924 389.189 294.911 386.255 296.734 383.218C296.772 383.132 296.817 383.05 296.87 382.973C298.307 380.545 299.501 378.306 300.409 376.421C301.155 374.956 301.698 373.707 302.078 372.785" stroke="#83ADDF" stroke-width="0.75" stroke-linecap="round" stroke-linejoin="round"/>
<path d="M394.235 388.387C394.723 394.804 390.953 396.445 390.953 396.445C391.468 412.047 386.884 419.508 379.262 421.489C371.64 423.47 351.947 427.648 351.947 427.648C349.906 428.479 347.937 429.477 346.061 430.633C343.864 431.881 341.138 433.482 337.923 435.381C328.131 441.107 312.711 446.452 294.388 456.111C261.919 473.232 238.781 463.953 237.235 445.787C234.441 412.535 276.661 410.365 292.082 407.8C303.258 405.928 320.563 401.492 331.291 399.009C335.36 398.087 338.412 397.436 339.849 397.3C345.003 396.839 355.69 391.195 374.447 385.293C393.204 379.392 408.353 375.973 408.353 380.111C408.353 384.249 394.235 388.387 394.235 388.387Z" fill="#FEBD9D"/>
<path d="M374.474 385.293C393.218 379.365 408.38 375.973 408.38 380.111C408.38 384.249 394.181 388.427 394.181 388.427C394.669 394.844 390.898 396.486 390.898 396.486C391.414 412.087 386.83 419.549 379.208 421.53" stroke="#EF8A66" stroke-width="0.75" stroke-linecap="round" stroke-linejoin="round"/>
<path d="M245.102 423.28C253.239 415.398 266.273 411.993 277.285 410.066" stroke="#EF8A66" stroke-width="0.75" stroke-linecap="round" stroke-linejoin="round"/>
<path d="M346.061 430.633C343.864 431.881 341.138 433.482 337.923 435.381C330.369 426.957 326.449 413.905 331.291 398.969C335.36 398.046 338.412 397.395 339.849 397.259C336.35 406.824 335.699 422.425 346.061 430.633Z" fill="#683F1D"/>
<path d="M394.235 388.387L382.639 392.144" stroke="#EF8A66" stroke-width="0.75" stroke-linecap="round" stroke-linejoin="round"/>
<path d="M390.953 396.445L383.819 399.036" stroke="#EF8A66" stroke-width="0.75" stroke-linecap="round" stroke-linejoin="round"/>
<path d="M384.592 406.525L390.668 404.87" stroke="#EF8A66" stroke-width="0.75" stroke-linecap="round" stroke-linejoin="round"/>
<path d="M343.321 416.497C343.321 418.437 342.746 420.333 341.669 421.946C340.591 423.559 339.06 424.816 337.268 425.559C335.476 426.301 333.505 426.495 331.602 426.117C329.7 425.738 327.953 424.804 326.582 423.432C325.21 422.061 324.277 420.313 323.898 418.41C323.52 416.508 323.714 414.535 324.456 412.743C325.198 410.951 326.455 409.419 328.068 408.341C329.68 407.263 331.576 406.688 333.515 406.688C336.116 406.688 338.61 407.721 340.449 409.561C342.288 411.4 343.321 413.895 343.321 416.497Z" fill="white" stroke="#683F1D" stroke-linecap="round" stroke-linejoin="round"/>
</g>
<path d="M479.136 234.961V437.484H190.445V234.961C190.443 232.279 190.97 229.622 191.994 227.143C193.019 224.665 194.523 222.412 196.418 220.515C198.314 218.617 200.565 217.112 203.042 216.085C205.519 215.058 208.175 214.53 210.856 214.53H458.724C461.406 214.53 464.061 215.058 466.539 216.085C469.016 217.112 471.267 218.617 473.162 220.515C475.058 222.412 476.561 224.665 477.586 227.143C478.611 229.622 479.138 232.279 479.136 234.961Z" stroke="#DDDDDD" stroke-width="2" stroke-linecap="round" stroke-linejoin="round"/>
<path d="M479.136 234.961V235.87H190.445V234.961C190.443 232.279 190.97 229.622 191.994 227.143C193.019 224.665 194.523 222.412 196.418 220.515C198.314 218.617 200.565 217.112 203.042 216.085C205.519 215.058 208.175 214.53 210.856 214.53H458.724C461.406 214.53 464.061 215.058 466.539 216.085C469.016 217.112 471.267 218.617 473.162 220.515C475.058 222.412 476.561 224.665 477.586 227.143C478.611 229.622 479.138 232.279 479.136 234.961Z" stroke="#DDDDDD" stroke-width="2" stroke-linecap="round" stroke-linejoin="round"/>
<path d="M440.062 225.207C440.062 225.942 439.845 226.661 439.436 227.272C439.028 227.883 438.447 228.36 437.768 228.641C437.089 228.922 436.342 228.996 435.621 228.852C434.901 228.709 434.238 228.355 433.719 227.835C433.199 227.315 432.845 226.653 432.702 225.932C432.558 225.211 432.632 224.463 432.913 223.784C433.194 223.105 433.671 222.524 434.282 222.116C434.893 221.707 435.611 221.489 436.346 221.489C436.834 221.489 437.318 221.586 437.768 221.772C438.219 221.959 438.629 222.233 438.974 222.578C439.319 222.923 439.593 223.333 439.78 223.784C439.966 224.235 440.062 224.718 440.062 225.207Z" fill="#DDDDDD"/>
<path d="M448.458 228.924C450.51 228.924 452.174 227.26 452.174 225.207C452.174 223.154 450.51 221.489 448.458 221.489C446.405 221.489 444.742 223.154 444.742 225.207C444.742 227.26 446.405 228.924 448.458 228.924Z" fill="#EDEDED"/>
<path d="M464.285 225.207C464.285 225.942 464.067 226.662 463.658 227.273C463.249 227.885 462.668 228.361 461.988 228.642C461.308 228.923 460.56 228.996 459.839 228.851C459.118 228.707 458.456 228.352 457.936 227.83C457.417 227.309 457.064 226.645 456.923 225.924C456.781 225.202 456.856 224.454 457.14 223.775C457.423 223.096 457.901 222.516 458.514 222.109C459.127 221.702 459.847 221.487 460.583 221.489C461.07 221.489 461.552 221.586 462.003 221.773C462.453 221.96 462.861 222.234 463.205 222.579C463.549 222.924 463.822 223.334 464.007 223.785C464.192 224.236 464.287 224.719 464.285 225.207Z" fill="#DDDDDD"/>
<path d="M409.086 402.794C413.724 397.87 421.468 397.259 421.468 397.259L430.433 406.525C430.433 406.525 432.983 379.161 421.468 341.622C419.285 359.951 412.544 389.445 409.086 402.794Z" fill="#DDDDDD" stroke="#DDDDDD" stroke-linecap="round" stroke-linejoin="round"/>
<path d="M497.54 336.06C510.493 377.167 509.869 406.525 509.869 406.525H430.433C430.433 406.525 419.732 365.73 421.468 341.622C421.468 341.622 419.963 335.938 424.94 335.436C429.918 334.934 497.54 336.06 497.54 336.06Z" fill="#F9F9F9" stroke="#DDDDDD" stroke-linecap="round" stroke-linejoin="round"/>
<path d="M433.891 335.653C433.885 335.54 433.885 335.427 433.891 335.314C434.007 334.216 434.438 333.175 435.132 332.317C435.827 331.459 436.755 330.82 437.805 330.479C438.854 330.138 439.98 330.108 441.046 330.393C442.112 330.679 443.073 331.267 443.812 332.087C444.551 332.907 445.036 333.924 445.209 335.015C445.382 336.105 445.236 337.222 444.787 338.231C444.339 339.24 443.608 340.097 442.683 340.699C441.758 341.301 440.678 341.621 439.574 341.622" stroke="#EDEDED" stroke-linecap="round" stroke-linejoin="round"/>
<path d="M474.253 335.653C474.399 334.566 474.855 333.544 475.566 332.709C476.277 331.874 477.213 331.261 478.263 330.945C479.313 330.628 480.431 330.62 481.485 330.922C482.539 331.224 483.484 331.823 484.207 332.648C484.929 333.473 485.399 334.489 485.56 335.574C485.722 336.659 485.567 337.767 485.115 338.766C484.663 339.766 483.933 340.614 483.013 341.209C482.092 341.805 481.019 342.122 479.923 342.124C478.97 342.123 478.034 341.87 477.21 341.392" stroke="#EDEDED" stroke-linecap="round" stroke-linejoin="round"/>
<path d="M450.099 335.409C450.161 333.921 450.777 332.51 451.826 331.453C452.875 330.397 454.281 329.77 455.768 329.697C457.333 329.859 458.782 330.596 459.836 331.765C460.89 332.934 461.473 334.452 461.473 336.026C461.473 337.6 460.89 339.118 459.836 340.287C458.782 341.456 457.333 342.193 455.768 342.355C454.489 342.335 453.261 341.853 452.309 340.998" stroke="#EDEDED" stroke-linecap="round" stroke-linejoin="round"/>
<path d="M462.196 335.544C462.34 334.459 462.793 333.438 463.501 332.603C464.209 331.769 465.143 331.156 466.19 330.838C467.237 330.52 468.354 330.511 469.406 330.811C470.459 331.111 471.402 331.709 472.124 332.531C472.846 333.354 473.316 334.367 473.478 335.45C473.639 336.533 473.485 337.639 473.035 338.637C472.584 339.635 471.855 340.481 470.936 341.076C470.017 341.67 468.946 341.987 467.852 341.989" stroke="#EDEDED" stroke-linecap="round" stroke-linejoin="round"/>
<path d="M493.282 349.274H437.621V355.637H493.282V349.274Z" stroke="#DDDDDD" stroke-linecap="round" stroke-linejoin="round"/>
<path d="M451.414 399.593L450.709 394.234L447.128 366.653L446.532 362.121" stroke="#EDEDED" stroke-linecap="round" stroke-linejoin="round"/>
<path d="M469.479 399.593L468.734 393.854L465.234 367.005L464.597 362.121" stroke="#EDEDED" stroke-linecap="round" stroke-linejoin="round"/>
<path d="M482.676 362.108L487.545 399.606" stroke="#EDEDED" stroke-linecap="round" stroke-linejoin="round"/>
<path d="M493.878 369.61H465.573H447.508H439.588" stroke="#EDEDED" stroke-linecap="round" stroke-linejoin="round"/>
<path d="M496.632 385.985H467.703H449.638H442.327" stroke="#EDEDED" stroke-linecap="round" stroke-linejoin="round"/>
<path d="M452.662 363.41C443.684 367.996 439.357 387.111 454.588 388.387C477.034 390.259 478.105 362.61 458.44 365.215" fill="#F9F9F9"/>
<path d="M452.662 363.41C443.684 367.996 439.357 387.111 454.588 388.387C477.034 390.259 478.105 362.61 458.44 365.215" stroke="#DDDDDD" stroke-width="2" stroke-linecap="round" stroke-linejoin="round"/>
<path d="M467.703 385.985H449.638L447.508 369.61H465.573L467.703 385.985Z" fill="#EDEDED"/>
<path d="M500.158 383.516C500.538 389.743 512.364 382.892 511.55 377.438C510.737 371.984 499.71 376.299 500.158 383.516Z" fill="#FEBD9D" stroke="#EF8A66" stroke-width="0.75" stroke-linecap="round" stroke-linejoin="round"/>
<path d="M498.151 375.132C498.585 381.373 511.903 374.521 511.035 369.054C510.167 363.587 497.649 367.928 498.151 375.132Z" fill="#FEBD9D" stroke="#EF8A66" stroke-width="0.75" stroke-linecap="round" stroke-linejoin="round"/>
<path d="M497.215 368.878C497.676 375.105 511.957 368.254 511.021 362.8C510.086 357.346 496.686 361.66 497.215 368.878Z" fill="#FEBD9D" stroke="#EF8A66" stroke-width="0.75" stroke-linecap="round" stroke-linejoin="round"/>
<path d="M495.208 361.158C495.682 366.816 510.411 360.602 509.448 355.65C508.485 350.698 494.652 354.619 495.208 361.158Z" fill="#FEBD9D" stroke="#EF8A66" stroke-width="0.75" stroke-linecap="round" stroke-linejoin="round"/>
<path d="M452.662 363.41C443.684 367.996 439.357 387.111 454.588 388.387C477.034 390.259 478.105 362.61 458.44 365.215" stroke="#DDDDDD" stroke-width="2" stroke-linecap="round" stroke-linejoin="round"/>
<path d="M399.063 218.233C397.883 228.042 384.768 233.794 384.768 233.794L348.38 265.567C344.65 271.523 334.492 274.521 328.307 269.543C324.686 266.639 322.435 261.009 323.656 251.635C322.643 251.635 321.653 251.338 320.807 250.78C316.617 248.189 314.026 239.926 320.319 230.118C319.872 230.552 311.49 238.705 302.864 236.236C301.381 235.84 299.998 235.133 298.808 234.163C297.618 233.192 296.648 231.98 295.961 230.606C293.248 225.057 294.198 215.805 301.942 203.12C307.448 194.071 315.111 192.443 321.675 194.139C329.108 196.038 335.129 202.143 335.129 206.58C336.769 204.567 338.671 202.783 340.785 201.275C343.687 199.254 347.281 197.883 350.496 199.837C350.496 199.837 361.807 193.746 368.235 197.558C376.237 202.279 374.474 205.562 382.259 206.078C388.05 206.458 397.178 207.923 398.846 214.489C399.164 215.711 399.237 216.983 399.063 218.233Z" fill="#DD6819"/>
<path d="M335.129 206.58L320.346 230.091C319.29 231.079 318.162 231.986 316.969 232.804C313.646 235.11 308.33 237.742 302.905 236.196C301.421 235.799 300.039 235.092 298.849 234.122C297.659 233.151 296.688 231.939 296.002 230.565C312.846 230.213 318.773 225.505 315.315 216.239C312.1 207.611 308.764 196.771 321.716 194.098C326.783 195.361 331.186 198.491 334.044 202.862C334.719 203.988 335.092 205.268 335.129 206.58Z" fill="#CC5E0D"/>
<path d="M399.063 218.233C397.883 228.042 384.768 233.794 384.768 233.794L348.38 265.568C344.65 271.523 334.492 274.521 328.307 269.543C326.169 264.412 325.644 258.752 326.802 253.316C327.96 247.879 330.747 242.925 334.79 239.113C342.25 232.329 336.784 227.269 337.503 218.342C338.222 209.415 354.551 195.672 366.242 208.004C375.41 217.677 392.661 205.983 398.914 214.489C399.209 215.715 399.259 216.988 399.063 218.233Z" fill="#CC5E0D"/>
<path d="M376.753 283.15C360.396 281.468 343.796 264.496 343.796 264.496C337.557 271.605 325.256 260.982 331.345 252.136C335.333 246.316 341.572 249.776 343.091 252.95C345.621 251.316 347.477 248.823 348.317 245.929C349.156 243.035 348.924 239.935 347.661 237.2C346.322 233.841 345.743 230.227 345.966 226.618C351.499 218.206 366.174 216.28 366.174 216.28C368.343 218.567 370.981 220.358 373.908 221.529C376.834 222.7 379.979 223.223 383.127 223.063C383.127 223.063 388.159 232.899 392.255 242.898C392.336 243.115 392.445 243.359 392.526 243.576C393.679 246.425 394.75 249.274 395.591 251.879C395.672 252.136 395.74 252.367 395.822 252.611C396.495 254.669 396.994 256.779 397.313 258.92C398.629 269.678 393.096 284.9 376.753 283.15Z" fill="#FEBD9D"/>
<path d="M383.547 238.407C383.547 238.756 383.651 239.097 383.845 239.387C384.038 239.677 384.314 239.903 384.636 240.036C384.958 240.17 385.313 240.205 385.655 240.137C385.997 240.069 386.311 239.901 386.557 239.654C386.804 239.408 386.972 239.093 387.04 238.751C387.108 238.409 387.073 238.054 386.94 237.732C386.806 237.41 386.58 237.134 386.29 236.941C386 236.747 385.659 236.643 385.311 236.643C384.844 236.647 384.398 236.834 384.068 237.164C383.738 237.494 383.551 237.94 383.547 238.407Z" fill="#683F1D"/>
<path d="M374.474 241.948C375.448 241.948 376.237 241.158 376.237 240.184C376.237 239.21 375.448 238.421 374.474 238.421C373.5 238.421 372.711 239.21 372.711 240.184C372.711 241.158 373.5 241.948 374.474 241.948Z" fill="#683F1D"/>
<path d="M372.399 252.123C375.933 253.896 379.854 254.758 383.805 254.633C383.805 254.633 383.046 261.24 377.377 259.476C372.426 257.943 372.399 252.123 372.399 252.123Z" fill="white" stroke="#EF8A66" stroke-width="0.75" stroke-linecap="round" stroke-linejoin="round"/>
<path d="M366.811 235.002C367.462 237.172 375.613 235.002 374.718 231.474C373.823 227.947 365.876 231.99 366.811 235.002Z" fill="#DD6819"/>
<path d="M380.659 230.633C380.537 232.994 388.878 233.157 388.878 231.122C388.878 229.277 380.876 226.821 380.659 230.633Z" fill="#DD6819"/>
<path d="M323.656 251.635C324.666 244.958 327.896 238.816 332.824 234.201" stroke="#FF79A0" stroke-width="0.75" stroke-linecap="round" stroke-linejoin="round"/>
<path d="M350.496 199.823C347.932 201.872 344.094 208.533 342.602 211.531" stroke="#FF79A0" stroke-width="0.75" stroke-linecap="round" stroke-linejoin="round"/>
<path d="M348.217 218.247C351.242 210.188 357.06 206.553 359.786 209.646C362.512 212.739 366.174 216.266 366.174 216.266" stroke="#FF79A0" stroke-width="0.75" stroke-linecap="round" stroke-linejoin="round"/>
<path d="M383.127 223.131C386.518 222.995 389.746 219.536 390.722 217.528" stroke="#FF79A0" stroke-width="0.75" stroke-linecap="round" stroke-linejoin="round"/>
<path d="M315.274 228.639C302.769 230.593 296.598 212.074 306.757 197.436" stroke="#FF79A0" stroke-width="0.75" stroke-linecap="round" stroke-linejoin="round"/>
<path d="M327.806 211.531C330.423 204.748 321.689 193.8 316.956 201.316C311.531 209.917 319.451 221.327 327.806 220.309" stroke="#FF79A0" stroke-width="0.75" stroke-linecap="round" stroke-linejoin="round"/>
<path d="M320.346 230.091C323.34 221.192 328.407 213.133 335.129 206.58C335.129 206.58 331.332 214.286 334.112 219.766C329.286 222.879 324.686 226.329 320.346 230.091Z" fill="#FED81D"/>
<path d="M332.824 257.943C335.346 253.48 339.727 253.724 342.033 257.482" stroke="#EF8A66" stroke-width="0.75" stroke-linecap="round" stroke-linejoin="round"/>
<path d="M341.11 256.288C335.916 254.931 335.902 261.904 341.422 260.914" stroke="#EF8A66" stroke-width="0.75" stroke-linecap="round" stroke-linejoin="round"/>
<path d="M378.841 237.132C378.76 241.202 382.015 243.535 384.158 244.661C386.301 245.787 385.595 248.731 385.446 249.165" stroke="#EF8A66" stroke-width="0.75" stroke-linecap="round" stroke-linejoin="round"/>
<path d="M343.809 264.55C344.641 263.475 345.334 262.299 345.871 261.05" stroke="#EF8A66" stroke-width="0.75" stroke-linecap="round" stroke-linejoin="round"/>
<path d="M367.3 250.793C365.943 253.371 361.78 253.846 357.806 251.879C353.832 249.912 351.757 246.208 353.059 243.63C354.361 241.053 358.579 240.578 362.553 242.558C366.527 244.539 368.602 248.27 367.3 250.793Z" fill="#F4AF90"/>
<path d="M395.822 252.666C394.971 253.059 394.026 253.203 393.097 253.08C392.168 252.958 391.293 252.574 390.573 251.974C388.606 250.007 389.352 246.018 392.255 242.952C392.336 243.169 392.445 243.413 392.526 243.63C393.679 246.479 394.75 249.328 395.591 251.933C395.672 252.191 395.74 252.421 395.822 252.666Z" fill="#F4AF90"/>
<path d="M878.85 187.817V390.34H590.213V187.817C590.213 182.398 592.365 177.201 596.195 173.37C600.026 169.538 605.221 167.386 610.638 167.386H858.506C863.91 167.403 869.087 169.564 872.9 173.395C876.714 177.225 878.854 182.411 878.85 187.817Z" stroke="#EDEDED" stroke-width="2" stroke-linecap="round" stroke-linejoin="round"/>
<path d="M878.85 187.817V188.726H590.213V187.817C590.213 182.398 592.365 177.201 596.195 173.37C600.026 169.538 605.221 167.386 610.638 167.386H858.506C863.91 167.403 869.087 169.564 872.9 173.395C876.714 177.225 878.854 182.411 878.85 187.817Z" stroke="#DDDDDD" stroke-width="2" stroke-linecap="round" stroke-linejoin="round"/>
<path d="M839.831 178.062C839.831 178.798 839.612 179.518 839.203 180.129C838.795 180.741 838.213 181.217 837.534 181.498C836.854 181.779 836.106 181.852 835.385 181.707C834.663 181.563 834.001 181.207 833.482 180.686C832.963 180.165 832.61 179.501 832.468 178.779C832.326 178.057 832.402 177.31 832.685 176.631C832.969 175.952 833.447 175.372 834.06 174.965C834.673 174.558 835.393 174.343 836.128 174.345C836.615 174.345 837.098 174.441 837.548 174.628C837.998 174.815 838.407 175.089 838.751 175.435C839.095 175.78 839.367 176.19 839.553 176.641C839.738 177.092 839.832 177.575 839.831 178.062Z" fill="#EDEDED"/>
<path d="M851.956 178.063C851.956 178.798 851.738 179.516 851.329 180.128C850.921 180.739 850.341 181.215 849.662 181.497C848.983 181.778 848.235 181.852 847.514 181.708C846.794 181.565 846.131 181.211 845.612 180.691C845.092 180.171 844.738 179.509 844.595 178.788C844.451 178.067 844.525 177.319 844.806 176.64C845.087 175.961 845.564 175.38 846.175 174.972C846.786 174.563 847.504 174.345 848.239 174.345C849.225 174.345 850.17 174.737 850.867 175.434C851.564 176.131 851.956 177.077 851.956 178.063Z" fill="#DDDDDD"/>
<path d="M864.067 178.063C864.067 178.798 863.849 179.516 863.441 180.128C863.032 180.739 862.452 181.215 861.773 181.497C861.094 181.778 860.347 181.852 859.626 181.708C858.905 181.565 858.243 181.211 857.723 180.691C857.203 180.171 856.849 179.509 856.706 178.788C856.563 178.067 856.636 177.319 856.917 176.64C857.199 175.961 857.675 175.38 858.286 174.972C858.897 174.563 859.616 174.345 860.351 174.345C861.336 174.345 862.282 174.737 862.978 175.434C863.675 176.131 864.067 177.077 864.067 178.063Z" fill="#EDEDED"/>
<path d="M596.37 275.865C595.624 267.399 632.989 251.35 639.16 263.736L626.954 275.865C626.954 275.865 601.741 285.863 596.37 275.865Z" fill="#93BEE5"/>
<path d="M614.653 215.317C609.228 198.44 608.821 196.323 612.455 195.062C616.09 193.8 625.299 212.97 626.343 215.317C629.992 222.704 632.803 230.476 634.725 238.488C636.339 245.977 638.455 263.22 638.794 267.372C640.231 284.9 611.343 290.232 610.082 276.597C608.821 262.963 608.726 258.554 608.726 258.554C608.726 258.554 593.807 259.91 591.718 248.813C589.63 237.715 590.213 222.493 590.213 222.493C590.213 222.493 567.536 218.735 568.323 212.752C569.11 206.77 613.486 218.857 613.486 218.857L614.653 215.317Z" fill="#B25E47"/>
<path d="M590.213 222.493C590.213 222.493 567.536 218.735 568.323 212.752C569.11 206.77 613.486 218.857 613.486 218.857L614.653 215.357C609.228 198.48 608.821 196.364 612.455 195.102C616.09 193.841 625.299 213.01 626.343 215.357" stroke="#934735" stroke-width="0.75" stroke-linecap="round" stroke-linejoin="round"/>
<path d="M613.486 218.817C611.538 226.296 611.85 234.185 614.381 241.487" stroke="#934735" stroke-width="0.75" stroke-linecap="round" stroke-linejoin="round"/>
<path d="M602.867 205.874C606.42 207.719 609.228 208.113 610.285 203.039C611.343 197.965 606.339 197.843 604.725 198.114C602.243 198.521 601.334 205.074 602.867 205.874Z" fill="#683F1D"/>
<path d="M603.531 204.572C602.974 206.55 602.521 208.556 602.175 210.582C602.758 210.88 606.244 212.061 606.705 210.88C607.237 208.809 607.614 206.7 607.831 204.572H603.531Z" fill="#683F1D"/>
<path d="M600.358 212.264C598.5 220.58 588.897 266.164 588.572 267.657C588.246 269.149 588.68 276.041 589.264 276.299C589.847 276.556 593.197 271.632 594.417 269.136C595.638 266.639 606.434 216.619 607.098 214.285C608.753 208.601 601.578 206.824 600.358 212.264Z" fill="#683F1D"/>
<path d="M591.908 238.136C587.256 239.207 585.941 243.644 589.372 246.588C593.061 249.762 602.148 248.351 602.568 244.295C602.989 240.239 595.787 237.254 591.908 238.136Z" fill="#B25E47" stroke="#934735" stroke-width="0.75" stroke-linecap="round" stroke-linejoin="round"/>
<path d="M591.488 230.864C586.714 230.159 585.547 234.934 588.952 238.597C592.356 242.26 603.599 243.088 604.237 238.733C604.874 234.378 594.417 231.298 591.488 230.864Z" fill="#B25E47" stroke="#934735" stroke-width="0.75" stroke-linecap="round" stroke-linejoin="round"/>
<path d="M587.256 222.71C593.251 221.354 606.244 230.104 605.715 232.831C605.077 236.263 598.934 236.779 590.281 233.102C582.157 229.657 584.327 223.402 587.256 222.71Z" fill="#B25E47" stroke="#934735" stroke-width="0.75" stroke-linecap="round" stroke-linejoin="round"/>
<mask id="mask1_1_24" style="mask-type:luminance" maskUnits="userSpaceOnUse" x="590" y="167" width="289" height="224">
<path d="M878.85 187.817V390.34H590.213V187.817C590.213 182.398 592.365 177.201 596.195 173.37C600.026 169.538 605.221 167.386 610.638 167.386H858.506C863.91 167.403 869.087 169.564 872.9 173.395C876.714 177.225 878.854 182.411 878.85 187.817Z" fill="white"/>
</mask>
<g mask="url(#mask1_1_24)">
<path d="M875.826 288.821C857.218 287.912 841.811 304.694 837.037 323.986C836.901 324.528 836.779 325.112 836.671 325.749C836.163 328.718 835.805 331.711 835.599 334.717C833.619 360.181 835.491 410.826 835.681 412.047C835.748 412.467 822.511 412.047 804.148 411.179C797.367 410.867 789.934 410.527 782.177 410.134C742.737 408.194 695.892 405.576 695.892 405.576L693.044 373.884C693.044 373.884 687.144 383.869 666.963 403.364C646.782 422.859 614.517 411.993 617.989 387.478C620.159 372.079 629.246 360.819 640.259 341.961C643.663 336.128 647.257 329.575 650.864 321.937C655.693 311.789 660.358 302.103 664.861 293.352C666.827 289.499 668.767 285.823 670.652 282.377C677.732 269.312 684.079 259.422 689.192 254.796C704.558 240.876 737.488 248.894 746.263 251.716C759.335 255.972 772.901 258.53 786.625 259.327C806.087 260.684 835.64 269.081 851.291 274.535C860.318 277.567 868.627 282.42 875.704 288.794L875.826 288.821Z" fill="#A7CAF0"/>
<path d="M888.927 317.704C871.892 300.61 846.029 293.149 820.07 316.348C789.88 343.25 766.715 347.931 732.755 308.642C708.193 280.152 699.676 272.975 670.652 282.431C677.732 269.366 684.079 259.476 689.192 254.85C704.558 240.93 737.488 248.948 746.263 251.77C759.338 256.008 772.903 258.548 786.625 259.327C806.087 260.683 835.64 269.081 851.291 274.535C860.318 277.567 868.627 282.42 875.704 288.794C882.512 294.166 886.486 304.911 888.927 317.704Z" fill="#C3DCF8"/>
<path d="M664.373 366.598C653.523 378.374 643.771 352.842 640.259 341.961C643.663 336.128 647.257 329.575 650.864 321.937C655.693 311.789 660.358 302.103 664.861 293.352C672.863 305.562 662.053 316.795 661.294 322.33C659.314 337.132 679.929 349.694 664.373 366.598Z" fill="#93BEE5"/>
<path d="M596.37 275.865C613.134 279.405 639.16 263.736 639.16 263.736C639.16 263.736 653.496 327.784 657.239 341.989C660.982 356.193 684.933 411.83 638.251 414.109C608.292 415.574 606.284 358.608 604.508 339.859C602.731 321.109 596.37 275.865 596.37 275.865Z" fill="#A7CAF0"/>
<path d="M607.478 283.191C620.376 284.1 634.739 275.417 634.739 275.417" stroke="#83ADDF" stroke-width="0.75" stroke-linecap="round" stroke-linejoin="round"/>
<path d="M639.16 263.736C639.16 263.736 653.496 327.784 657.239 341.989C659.287 349.735 667.343 369.814 666.665 386.84" stroke="#83ADDF" stroke-width="0.75" stroke-linecap="round" stroke-linejoin="round"/>
<path d="M732.755 262.094C741.109 277.601 763.27 292.511 790.016 271.93C790.016 271.93 792.891 263.383 792.593 263.383C792.294 263.383 736.539 256.6 736.539 256.6L732.755 262.094Z" fill="white"/>
<path d="M754.767 242.938C747.877 241.378 737.895 243.128 731.005 253.71C724.116 264.292 723.234 273.016 723.627 272.921C724.021 272.826 734.477 266.219 739.156 266.707C743.835 267.195 754.319 270.289 754.319 270.289L754.767 242.938Z" fill="#FED81D"/>
<path d="M785.811 246.045C785.811 246.045 801.042 246.14 803.076 256.817C805.111 267.494 799.496 280.301 792.606 286.216C785.716 292.131 789.5 277.669 764.762 270.886L785.811 246.045Z" fill="#FED81D"/>
<path d="M793.244 258.526C793.244 258.526 784.781 271.388 765.929 271.672C747.077 271.957 743.456 260.724 743.456 260.724C745.504 255.623 747.958 244.743 749.532 237.118C750.535 232.302 751.186 228.775 751.186 228.775C751.186 228.775 754.306 198.575 786.666 200.393L787.222 205.345L793.244 258.526Z" fill="#B25E47"/>
<path d="M749.532 237.417C750.535 232.614 751.186 229.073 751.186 229.073L769.604 220.431C769.604 220.431 772.52 241.487 749.532 237.417Z" fill="#914839"/>
<path d="M693.044 373.884C690.44 344.146 690.44 320.065 690.44 320.065" stroke="#83ADDF" stroke-width="0.75" stroke-linecap="round" stroke-linejoin="round"/>
</g>
<path d="M816.015 446.208C814.435 445.632 812.928 444.871 811.526 443.942C802.032 437.715 801.286 425.586 804.148 411.124C806.372 400.054 810.739 387.627 814.998 375.444C819.867 361.552 824.627 347.999 825.97 337.145C826.16 335.626 826.268 334.174 826.322 332.79C826.582 324.468 828.105 316.234 830.839 308.37C838.624 286.474 855.59 272.69 875.771 288.821C882.458 294.166 886.431 304.911 888.873 317.704C889.741 322.276 890.419 327.119 890.975 332.058C892.819 348.826 893.091 366.856 893.918 380.287C898 445.312 882.417 471.279 816.015 446.208Z" fill="#A7CAF0"/>
<path d="M888.927 317.704C874.266 302.998 853.041 295.414 830.866 308.343C838.651 286.447 855.617 272.663 875.798 288.794C882.512 294.166 886.486 304.911 888.927 317.704Z" fill="#C3DCF8"/>
<path d="M835.681 411.993C835.748 412.413 822.511 411.993 804.148 411.124C797.366 410.812 789.934 410.473 782.176 410.08C768.912 404.11 760.666 395.468 767.732 383.082C786.964 349.423 822.294 396.052 824.139 362.732C825.387 339.886 830.92 334.92 835.599 334.771C833.619 360.181 835.45 410.826 835.681 411.993Z" fill="#93BEE5"/>
<path d="M840.197 314.055C837.562 320.65 836.01 327.627 835.599 334.717C833.836 360.195 835.491 410.826 835.681 412.047" stroke="#83ADDF" stroke-width="0.75" stroke-linecap="round" stroke-linejoin="round"/>
<path d="M816.015 446.208C814.435 445.632 812.928 444.871 811.526 443.942C826.743 447.212 849.501 450.156 859.523 441.595C875.324 428.137 865.288 410.88 874.022 401.383C882.756 391.887 895.356 388.821 891.029 332.098C892.874 348.867 893.145 366.897 893.972 380.328C898 445.312 882.417 471.279 816.015 446.208Z" fill="#93BEE5"/>
<path d="M777.959 332.058C780.373 321.204 766.729 321.679 766.729 321.679C767.936 311.667 754.672 308.886 751.607 318.667C740.824 315.411 737.42 318.667 735.847 324.338L777.959 332.058Z" fill="#DDDDDD"/>
<path d="M759.568 322.724C761.343 322.724 762.782 321.284 762.782 319.509C762.782 317.733 761.343 316.293 759.568 316.293C757.793 316.293 756.353 317.733 756.353 319.509C756.353 321.284 757.793 322.724 759.568 322.724Z" fill="#F9F9F9" stroke="#DDDDDD" stroke-linecap="round" stroke-linejoin="round"/>
<path d="M715.368 316.28L695.241 425.451L775.151 441.595L796.621 332.275L715.368 316.28Z" fill="#F9F9F9" stroke="#DDDDDD" stroke-linecap="round" stroke-linejoin="round"/>
<path d="M739.984 388.617C735.915 399.24 735.671 410.405 737.542 414.136C737.542 414.136 745.164 415.561 752.787 394.871L739.984 388.617Z" fill="#93BEE5"/>
<path d="M750.332 368.077C732.05 361.796 723.315 357.997 720.02 357.102C716.724 356.206 704.816 355.202 702.917 357.102C701.019 359.001 700.883 361.416 701.561 363.885C702.239 366.354 700.205 368.267 699.92 370.818C699.635 373.368 702.7 374.141 702.076 376.678C701.453 379.215 699.364 381.997 700.801 384.818C702.239 387.64 699.445 390.516 702.076 393.935C704.708 397.354 731.67 399.009 737.583 397.747L749.193 402.944C749.193 402.944 769.618 381.956 750.332 368.077Z" fill="#B25E47"/>
<path d="M720.02 357.102C716.724 356.22 704.816 355.202 702.917 357.102C701.019 359.001 700.883 361.416 701.561 363.885C702.239 366.354 700.205 368.267 699.92 370.818C699.635 373.368 702.7 374.142 702.076 376.678C701.453 379.215 699.364 381.997 700.801 384.818C702.239 387.64 699.445 390.516 702.076 393.935" stroke="#934735" stroke-width="0.75" stroke-linecap="round" stroke-linejoin="round"/>
<path d="M859.537 441.581C854.777 450.183 842.869 454.321 820.206 447.496C814.103 445.651 808.216 443.739 802.574 441.798C793.243 438.597 784.631 435.327 776.914 432.193C763.468 426.847 750.304 420.815 737.474 414.122C740.883 410.363 743.634 406.057 745.612 401.383C746.845 398.618 747.861 395.76 748.65 392.836C750.756 384.757 751.322 376.353 750.318 368.064C753.397 368.986 756.706 369.936 760.192 370.886C768.614 373.192 778.053 375.58 787.615 378.089C816.273 385.646 846.083 394.302 853.339 405.06C854.003 406.05 854.695 407.041 855.238 408.072C855.468 408.479 855.712 408.886 855.929 409.306C855.996 409.41 856.055 409.519 856.106 409.632C856.377 410.12 856.635 410.622 856.879 411.111C857.34 411.993 857.747 412.874 858.14 413.756C862.412 423.551 863.619 434.215 859.537 441.581Z" fill="#A7CAF0"/>
<path d="M750.332 368.077C783.153 377.967 842.665 389.241 853.407 405.073C855.27 407.819 856.877 410.73 858.208 413.77" stroke="#83ADDF" stroke-width="0.75" stroke-linecap="round" stroke-linejoin="round"/>
<path d="M760.192 370.886C762.226 391.466 751.607 411.219 751.607 411.219" stroke="#83ADDF" stroke-width="0.75" stroke-linecap="round" stroke-linejoin="round"/>
<path d="M859.523 441.595C854.763 450.196 842.855 454.334 820.192 447.51C814.089 445.665 808.203 443.752 802.561 441.812C815.866 445.312 847.209 452.082 859.523 441.595Z" fill="#93BEE5"/>
<path d="M786.625 200.651L787.181 205.589C775.721 223.47 760.056 229.1 751.145 229.019C736.417 225.342 731.385 212.074 730.53 197.816C730.32 194.436 730.32 191.047 730.53 187.668C731.189 178.01 732.815 168.442 735.386 159.11C735.386 159.11 779.627 138.516 782.692 179.853C782.692 179.853 792.186 178.117 793.935 188.672C795.427 197.436 786.625 200.651 786.625 200.651Z" fill="#B25E47"/>
<path d="M737.637 187.722C738.611 187.722 739.4 186.932 739.4 185.958C739.4 184.984 738.611 184.195 737.637 184.195C736.664 184.195 735.874 184.984 735.874 185.958C735.874 186.932 736.664 187.722 737.637 187.722Z" fill="#683F1D"/>
<path d="M749.952 185.47C750.926 185.47 751.715 184.68 751.715 183.706C751.715 182.732 750.926 181.943 749.952 181.943C748.978 181.943 748.189 182.732 748.189 183.706C748.189 184.68 748.978 185.47 749.952 185.47Z" fill="#683F1D"/>
<path d="M747.294 174.196C747.484 176.611 755.73 177.547 756.204 176.177C756.869 174.115 746.819 168.539 747.294 174.196Z" fill="#604730"/>
<path d="M731.548 177.805C731.548 179.161 740.512 179.718 740.187 175.091C739.97 171.74 731.738 174.169 731.548 177.805Z" fill="#604730"/>
<path d="M780.4 192.959C784.089 187.532 789.894 188.102 790.531 189.133" stroke="#934735" stroke-width="0.75" stroke-linecap="round" stroke-linejoin="round"/>
<path d="M781.973 191.1C787.398 187.898 790.382 195.075 783.492 195.075" stroke="#934735" stroke-width="0.75" stroke-linecap="round" stroke-linejoin="round"/>
<path d="M742.398 180.83C743.89 183.72 743.754 185.47 742.777 187.329C741.801 189.187 738.804 193.42 740.363 197.178" stroke="#934735" stroke-width="0.75" stroke-linecap="round" stroke-linejoin="round"/>
<path d="M752.054 197.816C750.698 202.306 745.354 205.114 742.872 204.599C742.872 204.599 745.436 211.559 749.952 209.781C755.146 207.679 752.054 197.816 752.054 197.816Z" fill="white" stroke="#934735" stroke-width="0.75" stroke-linecap="round" stroke-linejoin="round"/>
<path d="M779.586 199.349C780.602 200.065 781.759 200.556 782.98 200.79C784.2 201.024 785.457 200.995 786.666 200.705" stroke="#934735" stroke-width="0.75" stroke-linecap="round" stroke-linejoin="round"/>
<path d="M795.671 175.634C800.744 182.607 793.108 185.633 793.108 185.633C792.338 184.491 791.317 183.54 790.124 182.852C789.375 182.409 788.537 182.138 787.671 182.058C786.804 181.977 785.931 182.089 785.113 182.386C784.295 182.683 783.553 183.158 782.94 183.775C782.327 184.393 781.857 185.138 781.566 185.958C771.164 186.175 775.653 178.049 775.653 178.049C766.322 181.78 766.024 172.215 770.038 167.901C762.755 176.041 753.505 167.901 755.011 160.534C752.434 168.579 743.252 168.891 744.473 162.217C743.685 163.588 742.728 164.855 741.625 165.988C735.318 172.337 729.649 165.554 732.036 160.561C722.542 169.597 718.473 159.49 727.493 154.063C720.345 148.202 728.849 139.845 734.559 144.187C733.202 133.781 743.944 133.333 748.65 139.397C750.494 127.974 764.762 134.215 765.332 139.628C775.843 132.275 783.98 137.688 782.963 149.64C787.208 143.956 796.309 147.293 792.809 161.85C801.544 161.226 803.022 172.066 795.671 175.634Z" fill="#604730"/>
<path d="M790.124 182.852C789.375 182.409 788.537 182.138 787.671 182.058C786.804 181.977 785.931 182.089 785.113 182.386C784.295 182.683 783.553 183.158 782.94 183.775C782.326 184.393 781.857 185.138 781.566 185.958C771.164 186.175 775.653 178.049 775.653 178.049C766.322 181.78 766.024 172.215 770.038 167.901C762.755 176.041 753.505 167.901 755.011 160.534C752.434 168.579 743.252 168.891 744.473 162.217C743.685 163.588 742.728 164.855 741.625 165.988C739.075 158.269 744.785 148.08 753.505 152.693C754.658 146.479 768.912 142.45 768.831 158.119C774.107 150.753 786.055 153.276 780.4 167.331C784.848 164.007 795.074 169.76 790.124 182.852Z" fill="#473526"/>
<path d="M770.96 185.578C772.222 188.102 769.848 191.833 765.671 193.935C761.494 196.038 757.072 195.686 755.811 193.162C754.55 190.639 756.91 186.908 761.1 184.805C765.291 182.702 769.699 183.055 770.96 185.578Z" fill="#A0503D"/>
<path d="M736.064 195.17C735.413 196.947 733.229 197.883 730.544 197.883C730.334 194.504 730.334 191.115 730.544 187.736C734.531 189.431 736.986 192.647 736.064 195.17Z" fill="#A0503D"/>
<path d="M773.876 478.523V681.047H485.185V478.523C485.176 475.84 485.698 473.181 486.72 470.699C487.743 468.218 489.246 465.964 491.143 464.066C493.04 462.168 495.294 460.664 497.775 459.642C500.255 458.619 502.913 458.097 505.596 458.106H753.465C756.148 458.097 758.806 458.619 761.286 459.642C763.767 460.664 766.021 462.168 767.918 464.066C769.815 465.964 771.318 468.218 772.341 470.699C773.363 473.181 773.885 475.84 773.876 478.523Z" stroke="#EDEDED" stroke-width="2" stroke-linecap="round" stroke-linejoin="round"/>
<path d="M773.876 478.523V479.446H485.185V478.523C485.176 475.84 485.698 473.181 486.72 470.699C487.743 468.218 489.246 465.964 491.143 464.066C493.04 462.168 495.294 460.664 497.775 459.642C500.255 458.619 502.913 458.097 505.596 458.106H753.465C756.148 458.097 758.806 458.619 761.286 459.642C763.767 460.664 766.021 462.168 767.918 464.066C769.815 465.964 771.318 468.218 772.341 470.699C773.363 473.181 773.885 475.84 773.876 478.523Z" stroke="#DDDDDD" stroke-width="2" stroke-linecap="round" stroke-linejoin="round"/>
<path d="M734.803 468.769C734.803 469.504 734.585 470.223 734.176 470.834C733.768 471.446 733.188 471.922 732.509 472.203C731.83 472.485 731.082 472.558 730.362 472.415C729.641 472.271 728.979 471.917 728.459 471.398C727.939 470.878 727.585 470.215 727.442 469.494C727.299 468.773 727.372 468.026 727.653 467.346C727.935 466.667 728.411 466.087 729.022 465.678C729.633 465.27 730.352 465.052 731.087 465.052C732.072 465.052 733.017 465.443 733.714 466.141C734.411 466.838 734.803 467.783 734.803 468.769Z" fill="#EDEDED"/>
<path d="M743.198 472.486C745.25 472.486 746.914 470.822 746.914 468.769C746.914 466.716 745.25 465.052 743.198 465.052C741.146 465.052 739.482 466.716 739.482 468.769C739.482 470.822 741.146 472.486 743.198 472.486Z" fill="#DDDDDD"/>
<path d="M755.323 472.486C757.375 472.486 759.039 470.822 759.039 468.769C759.039 466.716 757.375 465.052 755.323 465.052C753.27 465.052 751.607 466.716 751.607 468.769C751.607 470.822 753.27 472.486 755.323 472.486Z" fill="#EDEDED"/>
<path d="M502.206 576.366C493.96 551.946 492.02 538.759 494.272 536.874C495.628 535.68 497.893 534.798 498.069 532.383C498.246 529.968 495.479 521.855 505.135 519.956C505.135 519.956 508.404 500.814 511.51 491.846C511.51 491.846 528.761 560.534 529.968 565.689C531.175 570.845 507.807 593.026 502.206 576.366Z" fill="#FEBD9D"/>
<path d="M505.135 519.956C504.504 523.03 504.051 526.137 503.779 529.263" stroke="#EF8A66" stroke-width="0.75" stroke-linecap="round" stroke-linejoin="round"/>
<path d="M493.675 544.091C493.173 540.021 493.417 537.606 494.285 536.874C495.642 535.68 497.907 534.798 498.083 532.383C498.259 529.968 495.492 521.855 505.149 519.956C505.149 519.956 508.417 500.814 511.523 491.846" stroke="#EF8A66" stroke-width="0.75" stroke-linecap="round" stroke-linejoin="round"/>
<path d="M586.082 450.761L510.504 472.083C506.092 473.327 503.524 477.914 504.768 482.328L519.438 534.361C520.683 538.774 525.268 541.343 529.68 540.098L605.259 518.776C609.671 517.532 612.238 512.945 610.994 508.532L596.324 456.498C595.079 452.085 590.494 449.516 586.082 450.761Z" fill="#F9F9F9" stroke="#DDDDDD" stroke-linecap="round" stroke-linejoin="round"/>
<path d="M582.348 458.359L517.682 476.602C514.762 477.426 513.062 480.461 513.886 483.382L526.664 528.704C527.488 531.624 530.522 533.324 533.442 532.5L598.108 514.257C601.027 513.433 602.727 510.398 601.903 507.477L589.125 462.156C588.302 459.235 585.267 457.535 582.348 458.359Z" stroke="#EDEDED" stroke-linecap="round" stroke-linejoin="round"/>
<path d="M563.603 502.211C563.624 502.595 563.624 502.98 563.603 503.364C563.393 506.283 562.374 509.085 560.66 511.457C558.947 513.829 556.606 515.676 553.902 516.792C551.198 517.908 548.236 518.248 545.349 517.774C542.462 517.301 539.764 516.032 537.558 514.11C535.352 512.188 533.724 509.69 532.858 506.895C531.992 504.1 531.921 501.118 532.654 498.285C533.387 495.452 534.894 492.88 537.007 490.856C539.12 488.832 541.755 487.436 544.616 486.826C545.684 486.584 546.776 486.466 547.871 486.474C549.939 486.472 551.986 486.877 553.898 487.667C555.809 488.457 557.545 489.616 559.009 491.077C560.472 492.539 561.634 494.274 562.427 496.184C563.22 498.095 563.629 500.142 563.63 502.211H563.603Z" stroke="#EDEDED" stroke-linecap="round" stroke-linejoin="round"/>
<path d="M563.549 503.323C563.36 505.935 562.524 508.458 561.115 510.664C559.707 512.871 557.771 514.691 555.482 515.961C553.193 517.231 550.624 517.911 548.007 517.938C545.39 517.965 542.807 517.339 540.493 516.117C543.544 509.944 547.803 501.193 547.803 501.193L563.549 503.323Z" stroke="#EDEDED" stroke-linecap="round" stroke-linejoin="round"/>
<path d="M563.603 502.211C563.624 502.595 563.624 502.98 563.603 503.364L547.898 501.275L559.779 491.873C562.264 494.741 563.623 498.415 563.603 502.211Z" stroke="#EDEDED" stroke-linecap="round" stroke-linejoin="round"/>
<path d="M559.724 491.873L547.844 501.275C547.844 501.275 545.809 492.551 544.589 486.826C545.657 486.584 546.749 486.466 547.844 486.474C550.095 486.471 552.32 486.952 554.37 487.883C556.42 488.815 558.246 490.175 559.724 491.873Z" fill="#DDDDDD" stroke="#DDDDDD" stroke-linecap="round" stroke-linejoin="round"/>
<path d="M581.492 496.432C584.462 495.387 581.723 493.867 583.689 493.026C586.565 491.805 587.5 474.033 574.725 477.682C565.041 480.396 572.093 496.201 576.84 494.749C578.129 494.356 578.088 497.639 581.492 496.432Z" fill="#F9F9F9" stroke="#DDDDDD" stroke-linecap="round" stroke-linejoin="round"/>
<path d="M578.007 483.407C576.745 485.673 577.749 487.26 579.81 488.02C583.269 489.309 578.129 493.365 577.003 491.14C575.769 488.698 582.523 490.326 581.072 495.807" stroke="#DDDDDD" stroke-linecap="round" stroke-linejoin="round"/>
<path d="M579.973 500.067C580.841 502.143 581.913 502.509 583.554 502.034C585.195 501.56 585.263 500.42 584.829 498.765L579.973 500.067Z" fill="#F9F9F9" stroke="#EDEDED" stroke-linecap="round" stroke-linejoin="round"/>
<path d="M578.576 498.751C579.363 497.395 584.001 496.567 584.652 496.716C585.303 496.866 585.886 498.751 585.032 499.24C583.241 500.039 581.33 500.539 579.376 500.719C579.181 500.661 579 500.56 578.849 500.423C578.697 500.286 578.579 500.117 578.502 499.928C578.425 499.739 578.392 499.535 578.405 499.331C578.418 499.128 578.476 498.929 578.576 498.751Z" fill="#F9F9F9" stroke="#EDEDED" stroke-linecap="round" stroke-linejoin="round"/>
<path d="M577.681 496.228C578.522 494.871 583.513 494.03 584.15 494.193C584.991 494.396 585.507 496.228 584.571 496.703C582.648 497.506 580.612 498.005 578.536 498.182C578.337 498.13 578.153 498.034 577.996 497.901C577.84 497.767 577.716 497.6 577.634 497.412C577.552 497.224 577.513 497.02 577.522 496.815C577.53 496.61 577.584 496.409 577.681 496.228Z" fill="#F9F9F9" stroke="#EDEDED" stroke-linecap="round" stroke-linejoin="round"/>
<path d="M561.772 482.214L565.895 482.485" stroke="#EDEDED" stroke-linecap="round" stroke-linejoin="round"/>
<path d="M569.883 469.651L571.686 473.626" stroke="#EDEDED" stroke-linecap="round" stroke-linejoin="round"/>
<path d="M583.974 470.696L582.523 473.626" stroke="#EDEDED" stroke-linecap="round" stroke-linejoin="round"/>
<path d="M514.588 530.606C508.851 540.876 513.395 553.181 520.325 556.532C527.256 559.883 530.117 538.61 530.945 533.238C531.772 527.865 531.786 519.739 532.382 515.669C532.979 511.599 529.154 508.384 526.645 514.597C524.136 520.811 522.943 524.609 522.943 524.609L514.588 530.606Z" fill="#FEBD9D"/>
<path d="M530.945 533.238C531.786 527.811 531.786 519.739 532.382 515.669C532.979 511.599 529.155 508.384 526.645 514.597C524.136 520.811 522.943 524.609 522.943 524.609L514.588 530.606" stroke="#EF8A66" stroke-width="0.75" stroke-linecap="round" stroke-linejoin="round"/>
<mask id="mask2_1_24" style="mask-type:luminance" maskUnits="userSpaceOnUse" x="485" y="458" width="289" height="224">
<path d="M773.876 478.523V681.047H485.185V478.523C485.176 475.84 485.698 473.181 486.72 470.699C487.743 468.218 489.246 465.964 491.143 464.066C493.04 462.168 495.294 460.664 497.775 459.642C500.255 458.619 502.913 458.097 505.596 458.106H753.465C756.148 458.097 758.806 458.619 761.286 459.642C763.767 460.664 766.021 462.168 767.918 464.066C769.815 465.964 771.318 468.218 772.341 470.699C773.363 473.181 773.885 475.84 773.876 478.523Z" fill="white"/>
</mask>
<g mask="url(#mask2_1_24)">
<path d="M699.825 490.652L695.214 548.989L644.707 553.751C649.034 540.007 652.517 526.012 655.137 511.843C656.276 505.725 657.307 499.226 658.093 492.592L676.701 491.737L699.825 490.652Z" fill="#FEBD9D"/>
<path d="M680.837 497.232C678.776 505.236 667.478 510.907 655.218 511.816C656.357 505.698 657.388 499.199 658.175 492.565L676.782 491.71C679.698 492.999 681.407 494.79 680.837 497.232Z" fill="#F4A789"/>
<path d="M778.27 553.724V689.458H767.746C767.746 689.458 761.534 664.835 734.789 613.227C734.789 613.227 734.274 615.52 733.229 619.495C731.792 625.003 729.337 633.713 725.851 644.064C719.974 661.867 712.408 679.066 703.256 695.427C683.959 703.696 663.606 709.239 642.781 711.897C642.211 711.897 641.628 712.047 641.045 712.101C620.294 714.665 596.207 714.679 571.768 708.384C556.591 704.538 542.108 698.345 528.843 690.028C529.575 688.834 562.572 624.216 572.853 603.432C573.653 601.817 574.453 600.244 575.267 598.683C584.923 580.219 596.506 565.866 627.781 553.724C635.037 550.929 641.411 548.446 646.999 546.275C667.6 538.285 677.867 534.337 684.16 532.465C688.609 531.144 692.836 529.91 696.841 528.761C735.386 517.69 754.509 515.099 770.716 539.831C773.563 544.275 776.088 548.918 778.27 553.724Z" fill="#FED81D"/>
<path d="M770.716 539.831C757.371 539.017 740.58 542.694 731.087 563.6C713.55 602.184 678.939 618.342 653.563 593.61C633.626 574.196 599.652 576.719 575.267 598.683C584.923 580.219 596.506 565.866 627.781 553.724C635.037 550.929 641.411 548.446 646.999 546.275C667.6 538.285 677.867 534.337 684.16 532.465C688.609 531.144 692.836 529.91 696.841 528.761C735.386 517.69 754.509 515.099 770.716 539.831Z" fill="#FFE05C"/>
<path d="M778.271 652.774V689.404H767.746C767.746 689.404 761.534 664.78 734.789 613.173C736.322 607.217 737.502 601.478 738.451 596.391C755.73 603.961 757.208 619.983 755.323 629.032C753.573 637.457 762.457 658.105 778.271 652.774Z" fill="#FCC71F"/>
<path d="M634.386 622.493C631.673 636.684 619.86 661.565 598.771 697.11C595.53 702.265 591.85 707.131 587.772 711.653C582.385 710.842 577.043 709.755 571.768 708.397L578.441 689.472C582.225 674.833 589.291 668.308 604.508 665.377C618.016 662.759 606.705 621.435 634.386 622.493Z" fill="#FCC71F"/>
<path d="M566.438 733.495C566.438 733.495 577.871 723.022 587.772 711.64C591.85 707.118 595.53 702.252 598.771 697.096C619.86 661.565 631.66 636.684 634.386 622.479C635.236 618.084 635.213 614.715 634.318 612.372" stroke="#F7AD2B" stroke-width="0.75" stroke-linecap="round" stroke-linejoin="round"/>
<path d="M741.136 577.818C741.136 577.818 740.418 585.619 738.424 596.445C737.502 601.532 736.295 607.298 734.762 613.227" stroke="#F7AD2B" stroke-width="0.75" stroke-linecap="round" stroke-linejoin="round"/>
<path d="M578.427 659.001C578.929 691.629 541.7 724.528 521.288 684.153C512.757 667.29 491.451 588.59 492.943 577.818C494.299 568.226 522.346 546.872 533.861 551.051C533.861 551.051 538.675 563.722 545.294 579.894C553.716 600.474 565.054 626.766 573.029 639.818C576.513 645.613 578.377 652.238 578.427 659.001Z" fill="#FED81D"/>
<path d="M563.603 621.882C559.182 630.633 554.109 640.713 549.146 650.372C545.769 644.2 545.158 635.11 552.346 626.631C561.487 615.872 532.871 597.096 545.294 579.867C550.746 593.216 557.419 608.913 563.603 621.882Z" fill="#FCC71F"/>
<path d="M563.78 621.543C563.78 621.652 563.657 621.76 563.603 621.883C559.182 630.633 554.109 640.713 549.146 650.373L544.494 659.503" stroke="#F7AD2B" stroke-width="0.75" stroke-linecap="round" stroke-linejoin="round"/>
</g>
<path d="M645.331 462.732C638.55 487.22 632.514 500.624 674.273 503.364C674.273 503.364 700.774 473.517 697.167 430.185C697.167 430.185 673.554 411.192 653.102 448.188C653.102 448.188 645.602 451.065 644.748 452.082C643.893 453.1 644.463 459.422 645.331 462.732Z" fill="#FEBD9D"/>
<path d="M653.102 448.188C653.102 448.188 645.602 451.065 644.748 452.082C643.893 453.1 644.463 459.422 645.331 462.732" stroke="#EF8A66" stroke-width="0.75" stroke-linecap="round" stroke-linejoin="round"/>
<path d="M658.812 453.439C659.786 453.439 660.575 452.649 660.575 451.675C660.575 450.701 659.786 449.911 658.812 449.911C657.838 449.911 657.049 450.701 657.049 451.675C657.049 452.649 657.838 453.439 658.812 453.439Z" fill="#5C1A55"/>
<path d="M660.345 437.403C663.844 434.975 669.987 449.111 665.539 449.057C663.749 449.057 656.086 440.36 660.345 437.403Z" fill="#BF8228"/>
<path d="M734.789 556.979C732.728 577.112 722.881 585.13 724.794 591.927C726.706 598.724 731.412 597.245 731.412 597.245C731.412 597.245 727.669 608.099 713.306 603.771C713.306 603.771 700.747 622.954 688.894 609.198C678.179 623.836 655.598 626.834 654.906 606.756C654.906 606.756 663.627 608.94 668.075 603.283C672.524 597.625 673.5 588.196 668.672 583.231C663.844 578.266 656.832 573.3 656.384 565.011C655.937 556.722 662.053 542.178 670.937 531.366C670.937 531.366 635.485 521.367 632.867 551.716L625.787 554.429C625.787 554.429 618.233 550.78 618.409 538.583C618.586 526.387 629.72 517.433 641.845 517.65C653.97 517.867 683.225 512.603 668.97 475.661C668.97 475.661 680.607 479.921 683.645 470.601C686.683 461.28 676.145 456.315 670.082 461.524C670.082 461.524 665.119 453.859 679.834 436.982C678.193 431.637 672.51 430.199 674.951 424.772C676.932 420.404 689.355 420.404 698.686 422.29C700.689 422.688 702.661 423.232 704.585 423.918C709.931 425.817 714.587 429.271 717.958 433.835C719.979 436.535 721.311 439.688 721.837 443.019C723.177 442.468 724.62 442.209 726.068 442.26C728.998 442.368 732.579 444.01 733.853 450.861C735.711 460.778 728.917 465.784 724.36 468.077C723.092 468.707 721.765 469.211 720.399 469.583C721.396 472.688 721.855 475.942 721.756 479.202C721.698 481.329 721.411 483.444 720.901 485.51C718.962 493.257 714.757 506.742 716.615 516.117C716.82 517.252 717.147 518.362 717.592 519.427C721.403 528.734 736.851 536.847 734.789 556.979Z" fill="#BF8228"/>
<path d="M724.305 468.145C723.038 468.775 721.711 469.279 720.345 469.651C720.345 469.651 713.984 471.197 711.462 460.073C709.441 451.16 714.445 445.149 721.837 443.087C723.177 442.536 724.62 442.277 726.068 442.328C712.696 453.981 719.192 463.451 724.305 468.145Z" fill="#B57724"/>
<path d="M734.789 556.979C732.728 577.112 722.881 585.13 724.794 591.927C726.706 598.724 731.412 597.245 731.412 597.245C731.412 597.245 727.669 608.099 713.306 603.771C713.306 603.771 700.747 622.954 688.894 609.198C678.179 623.836 655.598 626.834 654.906 606.756C654.906 606.756 663.627 608.94 668.075 603.283C672.524 597.625 673.5 588.196 668.672 583.231C663.844 578.266 656.832 573.3 656.384 565.011C655.937 556.722 662.053 542.178 670.937 531.366C670.937 531.366 635.485 521.367 632.867 551.716L625.787 554.429C625.787 554.429 618.233 550.78 618.409 538.583C618.586 526.387 629.72 517.433 641.845 517.65C653.97 517.867 683.225 512.603 668.97 475.661C668.97 475.661 680.607 479.921 683.645 470.601C686.683 461.28 676.145 456.315 670.082 461.524C670.082 461.524 665.119 453.859 679.834 436.982C678.193 431.637 672.51 430.199 674.951 424.772C676.932 420.404 689.355 420.404 698.686 422.29C692.447 426.115 688.27 432.125 691.742 441.527C700.273 464.591 697.872 475.688 690.48 485.537C683.089 495.387 674.734 515.384 681.841 531.366C688.948 547.347 678.505 539.994 681.638 571.618C684.771 603.242 724.766 583.977 723.519 558.214C722.393 534.934 708.274 527.106 716.507 516.157C716.711 517.293 717.039 518.403 717.483 519.468C721.403 528.734 736.851 536.847 734.789 556.979Z" fill="#B57724"/>
<path d="M669.879 467.1C673.758 464.685 677.433 464.903 679.563 466.436" stroke="#EF8A66" stroke-width="0.75" stroke-linecap="round" stroke-linejoin="round"/>
<path d="M670.218 470.885C675.928 473.341 676.999 465.988 672.334 465.893" stroke="#EF8A66" stroke-width="0.75" stroke-linecap="round" stroke-linejoin="round"/>
<path d="M699.676 434.201C705.928 436.155 715.286 445.991 715.286 445.991" stroke="#9B621F" stroke-width="0.75" stroke-linecap="round" stroke-linejoin="round"/>
<path d="M721.837 443.087C714.445 445.136 709.441 451.16 711.462 460.073C713.984 471.197 720.345 469.651 720.345 469.651" stroke="#9B621F" stroke-width="0.75" stroke-linecap="round" stroke-linejoin="round"/>
<path d="M713.699 448.202C719.423 445.909 726.258 444.932 728.862 452.177C731.466 459.422 727.655 465.038 721.837 469.176" stroke="#9B621F" stroke-width="0.75" stroke-linecap="round" stroke-linejoin="round"/>
<path d="M684.906 452.625C696.57 456.125 711.34 455.202 711.34 455.202" stroke="#9B621F" stroke-width="0.75" stroke-linecap="round" stroke-linejoin="round"/>
<path d="M688.121 472.866C698.306 475.376 711.177 467.982 713.211 465.052" stroke="#9B621F" stroke-width="0.75" stroke-linecap="round" stroke-linejoin="round"/>
<path d="M711.123 458.106C712.777 453.547 717.456 450.549 720.928 455.053C724.4 459.557 719.192 464.333 714.974 459.354" stroke="#9B621F" stroke-width="0.75" stroke-linecap="round" stroke-linejoin="round"/>
<path d="M670.95 531.434C680.824 519.78 689.151 510.473 684.92 493.65" stroke="#9B621F" stroke-width="0.75" stroke-linecap="round" stroke-linejoin="round"/>
<path d="M688.975 609.265C694.956 600.122 685.72 586.691 684.31 577.832C682.899 568.972 682.587 557.861 693.708 545.801" stroke="#9B621F" stroke-width="0.75" stroke-linecap="round" stroke-linejoin="round"/>
<path d="M703.989 505.901C712.289 527.024 713.591 530.43 709.088 546.248C704.585 562.067 701.873 569.909 709.088 581.196C717.104 593.704 714.595 598.236 713.293 603.771" stroke="#9B621F" stroke-width="0.75" stroke-linecap="round" stroke-linejoin="round"/>
<path d="M667.18 460.928C667.709 463.804 664.956 466.72 661.05 467.426C657.144 468.131 653.55 466.381 653.021 463.492C652.492 460.602 655.245 457.699 659.151 456.993C663.057 456.288 666.651 458.038 667.18 460.928Z" fill="#F4AF90"/>
<path d="M773.876 512.549V681.047H485.185" stroke="#EDEDED" stroke-width="2" stroke-linecap="round" stroke-linejoin="round"/>
</svg>
