<svg width="912" height="684" viewBox="0 0 912 684" fill="none" xmlns="http://www.w3.org/2000/svg">
<path d="M694.556 114.832H229.778C221.216 114.832 214.274 121.774 214.274 130.336V412.03C214.274 420.593 221.216 427.534 229.778 427.534H694.556C703.119 427.534 710.06 420.593 710.06 412.03V130.336C710.06 121.774 703.119 114.832 694.556 114.832Z" stroke="#EDEDED" stroke-width="1.81" stroke-linecap="round" stroke-linejoin="round"/>
<path d="M679.862 129.413H244.484C235.922 129.413 228.98 136.354 228.98 144.917V397.427C228.98 405.989 235.922 412.931 244.484 412.931H679.862C688.424 412.931 695.366 405.989 695.366 397.427V144.917C695.366 136.354 688.424 129.413 679.862 129.413Z" stroke="#DDDDDD" stroke-width="1.81" stroke-linecap="round" stroke-linejoin="round"/>
<path d="M229.562 335.285C213.18 337.258 211.162 326.507 205.2 311.22C199.238 295.933 200.287 281.58 196.24 258.073C191.509 230.713 224.74 230.098 231.58 268.459C231.865 270.009 232.172 271.81 232.503 273.782C233.472 279.334 234.692 286.322 236.447 293.254C236.892 294.998 237.371 296.742 237.872 298.463C241.178 309.51 245.978 333.302 229.562 335.285Z" fill="#B25E47"/>
<path d="M236.493 293.254C214.445 300.094 211.174 282.059 211.413 274.683L232.526 273.782C233.518 279.3 234.737 286.288 236.493 293.254Z" fill="#914839"/>
<path d="M315.78 407.322C314.924 408.138 314.018 408.899 313.067 409.602C312.349 410.172 311.482 410.822 310.479 411.494L309.624 412.076L308.644 412.703C307.264 413.569 305.702 414.481 303.947 415.37C303.126 415.792 302.26 416.225 301.348 416.624C300.88 416.841 300.401 417.058 299.9 417.263L298.406 417.878C297.939 418.061 297.472 418.243 296.981 418.414C296.491 418.585 295.841 418.847 295.18 419.053C294.519 419.258 294.04 419.429 293.47 419.6C292.9 419.771 292.33 419.953 291.703 420.113L290.107 420.535L289.674 420.637L288.032 421.002C286.721 421.298 285.376 421.538 283.974 421.743C283.404 421.846 282.834 421.925 282.23 421.994C282.013 421.994 281.797 422.051 281.569 422.062C280.964 422.142 280.36 422.199 279.745 422.256V422.37C280.064 425.516 283.529 485.07 284.419 500.722L284.498 502.113C284.498 502.432 284.498 502.717 284.498 502.968C240.7 501.828 197.06 501.406 155.017 501.52C154.151 485.857 152.589 456.912 151.073 427.42C148.964 386.095 146.957 343.756 147.185 335.525V335.399C147.664 319.553 145.441 307.686 158.973 302.453C163.693 300.629 170.373 299.603 179.675 299.512H181.465H183.437H185.512C186.219 299.512 186.88 299.512 187.519 299.444H188.921L190.255 299.375H191.395L193.241 299.273L194.541 299.182C195.225 299.182 195.841 299.09 196.411 299.045H196.764L197.414 298.988L198.337 298.885H198.656C199.283 298.805 199.796 298.726 200.173 298.657C200.549 298.589 200.72 298.555 200.925 298.509C201.146 298.468 201.36 298.399 201.563 298.304C204.55 306.557 212.872 321.651 226.826 319.747C240.779 317.843 239.605 302.294 236.835 295.488L237.097 295.716L237.496 296.035L238.374 296.674C238.499 296.765 238.636 296.867 238.784 296.959L239.252 297.266L239.708 297.551L240.335 297.928C240.871 298.224 241.475 298.509 242.033 298.76L242.626 298.999C243.025 299.136 243.424 299.239 243.766 299.33C244.19 299.415 244.622 299.457 245.054 299.455C245.191 299.468 245.328 299.468 245.465 299.455C245.613 299.455 245.75 299.455 245.887 299.387C248.064 298.84 254.186 297.768 262.565 301.051C267.911 303.16 274.181 307.048 280.942 314.002C285.319 318.798 289.024 324.167 291.954 329.962C304.004 352.135 312.953 385.901 315.78 407.322Z" fill="#C3DCF8"/>
<path d="M292.034 329.768C284.706 328.724 277.238 330.135 270.796 333.781C265.734 336.855 261.751 341.423 259.396 346.856C247.631 372.803 216.805 382.55 196.205 353.833C193.342 349.766 190.027 346.037 186.322 342.718C175.252 333.005 162.382 330.326 147.106 335.639V335.513C147.584 319.667 145.361 307.8 158.893 302.567C163.613 300.743 170.293 299.717 179.596 299.626C199.318 299.421 201.518 298.156 201.518 298.156C204.505 306.409 212.827 321.503 226.78 319.599C240.734 317.695 239.56 302.146 236.789 295.34C237.097 295.602 242.489 300.082 245.909 299.227C248.087 298.68 254.209 297.608 262.588 300.892C267.934 303.001 274.204 306.888 280.964 313.842C285.359 318.624 289.083 323.982 292.034 329.768Z" fill="#D0E5F7"/>
<path d="M312.029 503.88C302.841 503.584 293.656 503.318 284.476 503.082V502.227L284.396 500.836L279.722 422.484V422.37L312.029 400.368C312.463 403.241 312.827 406.364 313.169 409.67C316.088 443.46 312.531 496.584 312.029 503.88Z" fill="#B25E47"/>
<path d="M315.78 407.322C315.78 407.322 302.887 420.329 279.676 422.347C278.399 384.921 274.808 355.292 270.818 333.781C268.071 318.904 265.118 307.891 262.667 300.892C268.014 303.001 274.284 306.888 281.044 313.842C285.422 318.638 289.126 324.007 292.057 329.802C304.004 352.135 312.953 385.901 315.78 407.322Z" fill="#FED81D"/>
<path d="M292.034 329.768C284.706 328.724 277.238 330.135 270.796 333.781C268.048 318.904 265.096 307.891 262.645 300.892C267.991 303.001 274.261 306.888 281.021 313.842C285.396 318.628 289.101 323.985 292.034 329.768Z" fill="#FFE05C"/>
<path d="M279.653 422.347C278.377 384.921 274.786 355.292 270.796 333.781" stroke="#F7AD2B" stroke-width="0.68" stroke-linecap="round" stroke-linejoin="round"/>
<path d="M200.857 294.052C194.017 296.742 194.017 299.752 194.017 303.023C194.017 306.295 200.15 324.148 212.143 336.824C214.48 339.298 217.957 324.034 221.388 323.144C224.819 322.255 227.897 323.828 229.493 323.6C231.089 323.372 235.319 319.177 238.066 321.081C240.814 322.985 246.628 332.481 247.768 332.732C248.908 332.983 249.022 310.24 246.4 302.248C245.712 299.99 244.422 297.962 242.669 296.381C240.916 294.8 238.765 293.727 236.447 293.276C236.447 293.276 238.34 309.784 232.811 314.686C221.32 324.9 209.498 312.029 200.857 294.052Z" fill="white"/>
<path d="M197.608 248.828C193.606 247.346 187.473 251.108 188.305 257.344C189.137 263.579 198.36 265.62 202.92 262.006C200.636 257.838 198.853 253.415 197.608 248.828Z" fill="#B25E47"/>
<path d="M191.452 257.754C191.11 255.075 194.347 250.846 199.432 254.858" stroke="#934735" stroke-width="0.68" stroke-linecap="round" stroke-linejoin="round"/>
<path d="M197.38 259.51C192.079 259.373 193.64 253.661 198.428 254.163" stroke="#934735" stroke-width="0.68" stroke-linecap="round" stroke-linejoin="round"/>
<path d="M239.047 255.212L236.174 256.044L208.027 264.184C208.027 264.184 207.275 263.454 206.135 262.189C202.417 258.096 199.456 253.375 197.391 248.246C196.771 246.59 196.339 244.869 196.103 243.116C194.712 232.207 206.055 211.766 224.933 221.206C231.032 227.02 234.498 237.348 235.387 240.38L235.684 241.406C236.767 245.453 239.047 255.212 239.047 255.212Z" fill="#B25E47"/>
<path d="M218.88 251.347C218.88 254.259 217.723 257.051 215.665 259.11C213.606 261.169 210.813 262.325 207.902 262.325C207.295 262.326 206.689 262.281 206.089 262.189C202.371 258.096 199.411 253.375 197.345 248.246C198.09 245.709 199.724 243.525 201.949 242.095C204.174 240.666 206.839 240.086 209.457 240.463C212.074 240.84 214.468 242.148 216.199 244.147C217.93 246.146 218.882 248.703 218.88 251.347Z" fill="#A0503D"/>
<path d="M239.047 255.212L236.174 256.044C234.982 255.249 233.997 254.181 233.3 252.929C232.604 251.677 232.215 250.277 232.167 248.845C232.12 247.414 232.413 245.991 233.025 244.695C233.636 243.4 234.548 242.268 235.684 241.395C236.767 245.453 239.047 255.212 239.047 255.212Z" fill="#A0503D"/>
<path d="M218.424 240.346C218.422 240.636 218.506 240.919 218.665 241.161C218.825 241.403 219.052 241.592 219.319 241.703C219.587 241.815 219.881 241.845 220.165 241.789C220.449 241.733 220.71 241.594 220.915 241.389C221.12 241.185 221.259 240.924 221.315 240.639C221.371 240.355 221.341 240.061 221.229 239.794C221.117 239.527 220.928 239.299 220.687 239.14C220.445 238.98 220.161 238.896 219.872 238.898C219.682 238.898 219.493 238.936 219.318 239.009C219.142 239.081 218.982 239.188 218.848 239.322C218.714 239.457 218.607 239.616 218.534 239.792C218.461 239.968 218.424 240.156 218.424 240.346Z" fill="#683F1D"/>
<path d="M228.935 238.898C228.935 239.187 229.021 239.47 229.182 239.71C229.342 239.95 229.571 240.137 229.838 240.248C230.106 240.358 230.4 240.386 230.683 240.329C230.966 240.271 231.226 240.131 231.43 239.926C231.633 239.721 231.772 239.46 231.827 239.176C231.882 238.892 231.851 238.598 231.739 238.332C231.627 238.066 231.438 237.838 231.196 237.679C230.955 237.521 230.672 237.437 230.383 237.439C230.191 237.439 230.002 237.477 229.826 237.55C229.649 237.624 229.489 237.732 229.355 237.867C229.22 238.003 229.114 238.164 229.042 238.341C228.97 238.518 228.933 238.707 228.935 238.898Z" fill="#683F1D"/>
<path d="M241.429 272.836C235.285 288.591 219.986 284.02 213.157 279.596C206.329 275.173 202.897 263.819 198.064 256.055C191.737 245.944 191.942 236.014 195.305 228.695C197.411 223.742 201.372 219.81 206.34 217.74C217.033 213.83 224.945 221.16 224.945 221.16C224.728 228 211.652 226.176 209.179 225.435C203.08 223.645 200.606 230.166 199.888 235.319C199.044 241.304 199.956 247.528 203.228 252.1C206.5 256.671 208.928 257.8 210.706 255.52C212.485 253.24 215.87 250.652 224.512 249.261C233.153 247.87 237.12 251.997 237.12 251.997C237.12 250.447 235.478 240.985 235.387 240.403C238.522 245.947 240.794 251.936 242.125 258.164C243.071 263.055 243.196 268.265 241.429 272.836Z" fill="#FFEACC"/>
<path d="M241.429 272.836C235.285 288.591 219.986 284.02 213.157 279.596C206.329 275.173 202.897 263.819 198.064 256.055C191.737 245.944 191.942 236.014 195.305 228.695C195.077 248.178 208.631 269.735 216.965 273.703C224.785 277.442 238.876 276.199 242.102 258.176C243.071 263.055 243.196 268.265 241.429 272.836Z" fill="#EDD6B7"/>
<path d="M219.872 253.81C223.372 254.022 226.882 254.022 230.383 253.81C230.383 253.81 228.98 258.449 224.683 258.05C223.52 257.989 222.412 257.537 221.539 256.767C220.666 255.997 220.078 254.955 219.872 253.81Z" fill="white" stroke="#934735" stroke-width="0.68" stroke-linecap="round" stroke-linejoin="round"/>
<path d="M218.413 229.767C219.119 232.56 212.086 237.496 210.33 235.467C208.574 233.438 217.341 225.572 218.413 229.767Z" fill="#FFEACC"/>
<path d="M224.728 228.547C224.512 230.554 232.97 232.241 233.084 230.725C233.198 229.208 225.127 224.922 224.728 228.547Z" fill="#FFEACC"/>
<path d="M223.303 231.853C222.482 234.737 221.958 238.488 224.728 239.833C227.498 241.178 231.249 240.654 231.625 246.149" stroke="#934735" stroke-width="0.68" stroke-linecap="round" stroke-linejoin="round"/>
<path d="M121.98 419.873C120.395 437.897 120.35 475.619 139.08 485.195C169.94 500.961 176.472 460.195 175.115 419.873H121.98Z" fill="#B25E47"/>
<path d="M186.629 356.82C186.048 380.657 175.765 426.485 175.765 426.485C166.201 427.272 158.027 427.625 151.039 427.625C121.604 427.625 113.419 421.834 113.419 421.834C113.419 421.834 119.381 375.892 127.805 345.773C128.649 342.73 129.527 339.845 130.416 337.189C138.179 314.173 147.983 304.619 158.916 302.659C161.795 302.162 164.735 302.127 167.626 302.556C179.732 304.198 185.056 323.076 186.344 342.809C186.664 347.426 186.743 352.192 186.629 356.82Z" fill="#FED81D"/>
<path d="M186.367 342.718C175.298 333.005 162.427 330.326 147.151 335.639C140.282 338.13 133.767 341.506 127.771 345.682C128.615 342.638 129.493 339.754 130.382 337.098C138.145 314.081 147.949 304.528 158.882 302.567C161.761 302.071 164.701 302.036 167.591 302.465C179.755 304.106 185.079 322.962 186.367 342.718Z" fill="#FFE05C"/>
<path d="M186.629 356.82C186.048 380.657 175.765 426.485 175.765 426.485" stroke="#F7AD2B" stroke-width="0.68" stroke-linecap="round" stroke-linejoin="round"/>
<path d="M296.104 380.76C296.104 380.76 299.524 383.268 295.887 390.131C295.887 390.131 299.683 393.631 294.599 399.502C295.291 400.857 295.476 402.415 295.121 403.895C294.765 405.375 293.893 406.679 292.661 407.573C287.524 412.067 282.068 416.181 276.336 419.885C273.668 421.526 269.998 423.932 264.206 428.036C261.926 429.655 259.282 431.547 256.226 433.736C249.386 438.718 240.472 445.341 228.73 454.256C181.135 490.348 152.714 495.296 136.184 483.406C123.052 473.966 139.604 431.399 190.3 414.367C216.395 405.589 232.412 400.995 242.216 398.236C246.194 397.096 249.158 396.298 251.336 395.637C254.231 394.748 255.793 394.132 256.648 393.414C259.703 390.792 261.117 387.714 262.599 384.02C264.081 380.327 267.569 366.487 268.436 362.702C269.302 358.918 275.857 356.729 274.763 378.127C274.763 378.127 293.516 372.016 296.913 371.138C300.31 370.261 301.655 377.705 296.104 380.76Z" fill="#B25E47"/>
<path d="M264.206 428.036C261.926 429.655 259.282 431.547 256.226 433.736C251.94 428.64 242.82 415.792 242.239 398.248C246.217 397.108 249.181 396.31 251.359 395.648C251.94 404.506 257.138 420.056 264.206 428.036Z" fill="#683F1D"/>
<path d="M249.991 422.347C254.757 422.347 258.62 418.484 258.62 413.717C258.62 408.951 254.757 405.088 249.991 405.088C245.224 405.088 241.361 408.951 241.361 413.717C241.361 418.484 245.224 422.347 249.991 422.347Z" fill="white" stroke="#683F1D" stroke-width="0.9" stroke-linecap="round" stroke-linejoin="round"/>
<path d="M262.645 384.032C264.115 380.327 267.615 366.499 268.481 362.714C269.348 358.929 275.903 356.74 274.808 378.138C274.808 378.138 293.561 372.028 296.959 371.15C300.356 370.272 301.655 377.705 296.104 380.76C296.104 380.76 299.524 383.268 295.887 390.131C295.887 390.131 299.683 393.631 294.599 399.502C295.291 400.857 295.476 402.415 295.121 403.895C294.765 405.375 293.893 406.679 292.661 407.573" stroke="#934735" stroke-width="0.68" stroke-linecap="round" stroke-linejoin="round"/>
<path d="M296.104 380.76C292.684 382.333 285.73 385.195 285.73 385.195" stroke="#934735" stroke-width="0.68" stroke-linecap="round" stroke-linejoin="round"/>
<path d="M295.887 390.131C293.812 391.487 288.967 393.916 288.967 393.916" stroke="#934735" stroke-width="0.68" stroke-linecap="round" stroke-linejoin="round"/>
<path d="M294.599 399.502C293.606 400.077 292.569 400.572 291.498 400.984" stroke="#934735" stroke-width="0.68" stroke-linecap="round" stroke-linejoin="round"/>
<path d="M274.808 378.138C271.628 379.073 269.108 380.019 269.108 380.019" stroke="#934735" stroke-width="0.68" stroke-linecap="round" stroke-linejoin="round"/>
<path d="M498.248 337.223C498.117 339.584 497.862 341.935 497.485 344.269C494.532 363.478 483.919 391.077 472.142 407.938C469.785 411.413 467.064 414.627 464.026 417.525C454.769 426.041 440.029 427.648 429.734 421.686C426.627 419.895 423.979 417.405 422 414.413C420.021 411.421 418.766 408.01 418.334 404.449C417.886 401.363 417.851 398.231 418.232 395.135C420.204 377.682 432.094 347.768 446.447 326.188C448.077 323.703 449.764 321.32 451.463 319.097C459.568 308.473 468.152 301.063 475.996 300.265C477.616 300.074 479.258 300.202 480.829 300.641C493.825 304.38 499.423 314.549 498.248 337.223Z" fill="#FED81D"/>
<path d="M474.468 347.7C470.529 361.249 468.948 375.374 469.794 389.458C470.248 395.674 471.032 401.862 472.142 407.995C469.785 411.47 467.064 414.683 464.026 417.582C454.769 426.098 440.029 427.705 429.734 421.743C426.627 419.952 423.979 417.462 422 414.47C420.021 411.478 418.766 408.067 418.334 404.506C427.454 414.287 437.03 416.396 444.554 413.923C455.476 410.411 462.327 397.427 458.12 384.146C450.722 360.799 467.411 347.449 475.38 343.562C475.175 344.861 474.856 346.241 474.468 347.7Z" fill="#FCC71F"/>
<path d="M498.248 337.223C498.117 339.584 497.862 341.935 497.485 344.269C496.12 342.244 494.995 340.067 494.133 337.782C490.097 327.009 482.824 320.944 474.753 318.311C467.126 315.945 458.924 316.222 451.474 319.097C459.58 308.473 468.164 301.063 476.007 300.265C477.627 300.074 479.269 300.202 480.841 300.641C493.825 304.38 499.423 314.549 498.248 337.223Z" fill="#FFE05C"/>
<path d="M589.312 527.25C558.896 522.109 528.538 517.993 499.468 515.223C490.895 514.417 482.235 513.657 473.488 512.943C475.129 493.141 478.823 460.64 485.617 452.74C485.977 452.24 486.44 451.823 486.975 451.518C487.51 451.213 488.105 451.027 488.718 450.973C492.571 450.904 502.216 450.585 513.684 450.163C539.14 449.206 573.58 447.781 573.58 447.781C574.07 449.696 574.56 451.6 575.039 453.481C575.039 453.56 575.039 453.652 575.119 453.743C581.148 477.977 585.886 502.514 589.312 527.25Z" fill="#83ADDF"/>
<path d="M561.37 457.573C564.938 465.553 574.48 474.913 577.706 477.044" stroke="white" stroke-width="0.9" stroke-miterlimit="10"/>
<path d="M529.211 318.71C514.528 320.5 511.358 308.735 511.267 291.92C511.267 287.964 511.404 283.723 511.621 279.3C511.739 276.705 512.017 274.12 512.453 271.559C517.457 242.911 541.169 246.377 542.389 263.26C542.857 269.667 547.371 316.498 529.211 318.71Z" fill="#B25E47"/>
<path d="M528.869 274.261C528.082 285.57 519.954 291.361 511.279 291.92C511.279 287.964 511.415 283.723 511.632 279.3C511.75 276.705 512.028 274.12 512.464 271.559C517.241 269.519 529.484 265.141 528.869 274.261Z" fill="#914839"/>
<path d="M585.743 385.662C584.968 388.247 584.355 390.878 583.908 393.539C583.783 394.269 583.669 394.999 583.555 395.717C579.052 423.772 578.493 449.798 578.185 452.5C577.877 455.202 552.752 454.267 534.056 453.355C526.771 452.99 517.355 453.093 508.474 453.161C494.566 453.264 481.969 453.298 480.909 451.326C480.236 450.049 478.435 442.582 476.474 432.995C476.167 431.501 475.859 429.974 475.54 428.435C475.38 427.66 475.232 426.862 475.084 426.064C474.935 425.266 474.73 424.228 474.559 423.316C474.388 422.404 474.183 421.355 474.001 420.364C473.602 418.175 473.203 415.963 472.861 413.763C472.519 411.563 472.131 409.408 471.8 407.288C470.747 401.145 470.024 394.949 469.634 388.729C468.937 374.634 470.669 360.524 474.753 347.016C474.856 346.663 474.958 346.321 475.038 345.979C475.198 345.386 475.346 344.839 475.483 344.212L475.688 343.288C475.756 342.98 475.813 342.673 475.87 342.365C475.927 342.057 475.996 341.749 476.041 341.453C476.087 341.156 476.144 340.837 476.189 340.529C476.292 339.937 476.372 339.332 476.452 338.751C476.611 337.292 476.737 335.855 476.794 334.453C476.794 334.259 476.794 334.066 476.794 333.883C476.794 332.891 476.794 331.911 476.794 330.942C476.689 326.491 476.189 322.058 475.3 317.695C473.864 310.251 471.937 304.654 472.416 302.077C472.644 300.812 473.955 300.048 476.258 299.717C476.417 299.717 476.588 299.717 476.737 299.66C482.437 298.999 493.312 300.607 508.155 303.673C508.456 300.342 508.985 297.036 509.74 293.778C509.886 293.27 510.198 292.825 510.625 292.513C511.052 292.202 511.571 292.041 512.099 292.057C513.718 291.908 515.907 292.501 518.005 292.695C521.573 293.026 533.714 290.814 539.961 287.519C541.216 286.786 542.603 286.306 544.042 286.106C547.04 285.821 548.078 288.181 548.465 291.407C548.465 291.544 548.465 291.692 548.465 291.829C548.465 291.965 548.465 292.125 548.465 292.285C548.465 292.444 548.465 292.877 548.534 293.185C548.602 293.493 548.534 293.641 548.591 293.881C548.648 294.12 548.591 294.508 548.648 294.827C548.705 295.146 548.648 295.591 548.648 295.967C548.648 296.343 548.648 296.696 548.648 297.107C548.648 297.289 548.648 297.483 548.648 297.677C548.648 297.871 548.648 297.996 548.648 298.156C548.648 298.315 548.648 298.589 548.648 298.805C548.648 299.022 548.648 299.353 548.648 299.615C548.648 299.877 548.648 300.151 548.648 300.413V300.926C548.648 303.206 548.648 305.03 548.648 305.03C559.934 300.755 576.943 296.389 589.836 304.312H589.904C594.101 306.97 597.571 310.629 600.005 314.959C600.643 316.038 601.247 317.178 601.817 318.379C612.693 341.259 593.085 360.719 585.743 385.662Z" fill="#FED81D"/>
<path d="M600.267 314.914C589.38 316.247 577.193 323.315 565.759 336.904C563.981 339.017 562.225 341.297 560.492 343.744C542.104 369.474 510.082 362.657 497.792 343.892C496.447 341.859 495.345 339.674 494.509 337.383C490.576 326.564 483.371 320.42 475.334 317.707C473.898 310.262 471.971 304.665 472.45 302.089C472.678 300.823 473.989 300.059 476.292 299.729C476.452 299.729 476.623 299.729 476.771 299.672C482.471 299.011 493.346 300.618 508.189 303.685C508.49 300.354 509.019 297.048 509.774 293.789C509.92 293.281 510.232 292.836 510.659 292.525C511.086 292.213 511.605 292.052 512.134 292.068C513.752 291.92 515.941 292.513 518.039 292.706C521.607 293.037 533.748 290.825 539.995 287.531C541.25 286.798 542.637 286.317 544.076 286.117C547.075 285.832 548.112 288.192 548.5 291.418C548.5 291.555 548.5 291.703 548.5 291.84C548.5 291.977 548.5 292.136 548.5 292.296C548.5 292.456 548.5 292.889 548.568 293.197C548.636 293.504 548.568 293.653 548.625 293.892C548.682 294.131 548.625 294.519 548.682 294.838C548.739 295.157 548.682 295.602 548.682 295.978C548.682 296.354 548.682 296.708 548.682 297.118C548.682 297.301 548.682 297.494 548.682 297.688C548.682 297.882 548.682 298.007 548.682 298.167C548.682 298.327 548.682 298.6 548.682 298.817C548.682 299.033 548.682 299.364 548.682 299.626C548.682 299.888 548.682 300.162 548.682 300.424V300.937C548.682 303.217 548.682 305.041 548.682 305.041C559.968 300.766 576.977 296.4 589.87 304.323H589.939C594.211 306.936 597.762 310.577 600.267 314.914Z" fill="#FFE05C"/>
<path d="M476.406 333.883C476.37 337.112 476.049 340.332 475.448 343.505C475.175 344.861 474.856 346.241 474.468 347.643C470.529 361.192 468.948 375.317 469.794 389.401C470.248 395.617 471.032 401.805 472.142 407.938C472.496 410.047 472.883 412.213 473.282 414.401C474.491 420.968 475.847 427.705 477.136 433.633C479.199 443.186 481.08 450.642 481.764 451.873" stroke="#F7AD2B" stroke-width="0.68" stroke-linecap="round" stroke-linejoin="round"/>
<path d="M583.817 395.227C579.61 423.339 579.325 449.354 579.04 452.056C578.755 454.757 553.63 454.108 534.934 453.378C527.649 453.093 518.233 453.298 509.352 453.458C516.648 447.382 531.742 437.395 546.22 443.711C566.318 452.477 575.791 424.821 563.525 422.347C551.258 419.873 550.62 405.92 548.226 394.634L558.258 390.564L583.817 395.227Z" fill="#FCC71F"/>
<path d="M507.46 303.947C507.335 306.122 507.335 308.303 507.46 310.479" stroke="#F7AD2B" stroke-width="0.68" stroke-linecap="round" stroke-linejoin="round"/>
<path d="M548.226 304.437C548.066 308.723 547.873 311.516 547.873 311.516" stroke="#F7AD2B" stroke-width="0.68" stroke-linecap="round" stroke-linejoin="round"/>
<path d="M517.195 311.049C522.713 312.634 531.194 312.725 536.051 311.049" stroke="#F7AD2B" stroke-width="0.68" stroke-linecap="round" stroke-linejoin="round"/>
<path d="M636.542 411.757C630.842 418.996 615.349 420.386 602.741 410.32C599.224 407.48 596.214 404.065 593.837 400.22C592.447 398.008 590.657 394.657 588.662 390.712C587.784 388.957 586.849 387.087 585.903 385.149C580.602 374.296 574.503 361.141 570.65 353.617C568.717 349.815 567.269 345.786 566.341 341.624C565.953 339.971 565.645 338.295 565.406 336.608C562.499 316.35 569.772 295.078 589.414 303.685H589.471C593.381 305.406 597.542 309.134 601.726 314.024C611.872 325.926 622.064 344.804 628.562 358.997C630.044 362.224 631.321 365.21 632.369 367.821C639.962 386.699 643.644 402.659 636.542 411.757Z" fill="#FED81D"/>
<path d="M606.731 379.745C606.286 386.825 597.976 389.743 588.662 390.712C587.784 388.957 586.849 387.087 585.903 385.149C580.602 374.296 574.503 361.141 570.65 353.617C568.717 349.815 567.269 345.786 566.341 341.624C574.321 341.795 583.019 344.713 583.817 358.405C584.364 367.753 607.734 363.546 606.731 379.745Z" fill="#FCC71F"/>
<path d="M601.726 314.059C601.042 314.059 600.358 314.173 599.686 314.264C588.81 315.7 576.703 322.905 565.406 336.608C562.499 316.35 569.772 295.078 589.414 303.685H589.471C593.381 305.44 597.542 309.168 601.726 314.059Z" fill="#FFE05C"/>
<path d="M593.837 400.22C592.447 398.008 590.657 394.657 588.662 390.712C587.784 388.957 586.849 387.087 585.903 385.149C580.602 374.296 574.503 361.141 570.65 353.617C568.717 349.815 567.269 345.786 566.341 341.624C565.953 339.971 565.645 338.295 565.406 336.608" stroke="#F7AD2B" stroke-width="0.68" stroke-linecap="round" stroke-linejoin="round"/>
<path d="M636.542 411.757C630.842 418.996 615.349 420.386 602.741 410.32C605.849 409.322 609.143 409.045 612.374 409.511C625.21 411.38 637.876 406.091 628.003 391.145C620.023 379.027 625.723 363.785 628.562 359.032C630.044 362.258 631.321 365.245 632.369 367.855C639.962 386.699 643.644 402.659 636.542 411.757Z" fill="#FCC71F"/>
<path d="M554.097 220.18C551.692 221.89 550.21 222.163 550.267 224.74C550.324 227.316 549.206 228.068 548.078 228.49C546.949 228.912 548.215 230.827 547.861 232.674C547.508 234.521 542.765 236.276 542.765 236.276L511.267 221.456C508.645 218.264 509.785 216.497 510.629 214.787C510.711 214.627 510.754 214.449 510.754 214.269C510.754 214.088 510.711 213.911 510.629 213.75C510.184 212.61 508.269 211.527 508.759 210.193C509.386 208.495 511.039 208.21 513.068 208.141C515.098 208.073 514.653 202.441 513.718 200.914C512.783 199.386 513.502 195.681 516.682 195.898C519.863 196.114 521.071 195.476 521.356 193.982C521.548 193.463 521.845 192.988 522.228 192.587C522.612 192.187 523.073 191.87 523.585 191.657C524.096 191.443 524.646 191.336 525.2 191.344C525.754 191.352 526.3 191.474 526.805 191.702C529.279 192.991 531.365 191.566 532.893 190.152C532.98 190.063 533.076 189.983 533.178 189.913C534.808 188.647 538.228 187.952 539.619 190.152C541.01 192.352 542.879 193.412 545.855 193.572C548.83 193.732 549.674 196.262 549.035 198.736C548.397 201.21 549.32 202.065 551.236 203.205C552.239 203.997 552.978 205.075 553.355 206.297C553.732 207.518 553.728 208.826 553.345 210.045C552.959 210.766 552.821 211.593 552.951 212.4C553.08 213.208 553.471 213.95 554.063 214.514C555.009 215.585 556.502 218.481 554.097 220.18Z" fill="#473526"/>
<path d="M542.093 260.672C539.605 261.739 536.908 262.227 534.204 262.097C523.385 261.596 496.972 271.377 496.972 271.377C492.537 271.924 489.835 273.452 491.842 275.663C493.848 277.875 495.729 284.259 490.599 284.783C489.59 284.879 488.575 284.879 487.567 284.783C484.557 284.521 483.223 283.256 483.599 282.07C484.078 280.554 487.339 280.93 487.954 280.269C488.57 279.608 488.718 278.263 486.712 276.382C484.705 274.501 483.292 271.605 485.332 268.652C487.373 265.7 491.5 263.009 489.003 260.923C486.506 258.837 484.443 256.967 485.583 254.471C486.723 251.974 492.514 248.44 489.812 245.351C487.111 242.261 484.682 238.351 489.949 233.563C495.216 228.775 500.551 229.687 499.787 225.583C499.024 221.479 499.662 217.535 505.339 218.504C511.016 219.473 511.86 219.062 514.357 217.672C516.853 216.281 520.171 217.045 523.374 219.826C526.577 222.608 529.61 219.473 533.486 220.237C537.362 221 533.486 224.74 538.411 225.583C543.335 226.427 545 226.621 545.558 231.283C546.117 235.946 549.377 236.048 550.05 237.53C551.452 240.506 549.229 242.592 548.602 244.37C547.975 246.149 549.355 247.198 550.449 249.022C552.193 252.111 548.477 257.959 542.093 260.672Z" fill="#604730"/>
<path d="M543.78 252.339C543.418 255.156 542.843 257.942 542.059 260.672C539.571 261.739 536.873 262.227 534.17 262.097C523.351 261.596 496.937 271.377 496.937 271.377C492.503 271.924 489.801 273.452 491.807 275.663C493.814 277.875 495.695 284.259 490.565 284.783C489.556 284.879 488.541 284.879 487.532 284.783C491.374 284.156 492.4 281.42 490.417 277.795C487.692 272.813 488.672 269.815 491.408 266.999C494.144 264.184 489.664 257.389 491.408 253.832C493.153 250.276 496.117 249.022 494.931 243.652C493.745 238.283 494.327 235.672 498.602 232.72C502.877 229.767 506.411 229.163 508.679 225.606C510.948 222.049 516.865 219.792 518.882 224.056C520.9 228.319 521.55 231.203 527.216 229.471C532.882 227.738 536.678 229.87 534.66 234.737C532.642 239.605 533.6 244.222 537.157 244.815C540.713 245.408 544.487 245.59 543.78 252.339Z" fill="#473526"/>
<path d="M539.744 268.63C518.461 284.111 509.284 289.207 499.103 280.645C494.361 276.667 493.54 268.538 494.475 260.239C494.823 257.279 495.356 254.343 496.071 251.45C497.136 246.743 498.77 242.183 500.939 237.872C505.499 229.619 516.01 229.208 517.07 229.619C518.13 230.029 518.461 230.645 517.435 233.039C516.409 235.433 517.537 237.223 520.49 237.314C523.442 237.405 526.817 239.457 526.498 242.41C526.304 243.847 526.54 245.309 527.175 246.613C527.81 247.918 528.815 249.005 530.066 249.74C532.813 251.473 532.346 254.129 532.711 255.748C533.075 257.366 536.484 259.168 537.407 256.967C538.331 254.767 543.609 249.945 547.895 254.334C552.182 258.723 548.397 268.937 539.744 268.63Z" fill="#B25E47"/>
<path d="M514.231 257.56C515.257 259.692 518.951 260.034 522.462 258.335C525.973 256.637 528.014 253.536 527.022 251.404C526.03 249.272 522.314 248.919 518.791 250.629C515.269 252.339 513.205 255.428 514.231 257.56Z" fill="#A0503D"/>
<path d="M499.879 259.418C498.91 260.775 496.766 261.026 494.475 260.239C494.823 257.279 495.356 254.344 496.071 251.45C496.264 251.561 496.451 251.683 496.63 251.815C499.81 254.095 501.258 257.503 499.879 259.418Z" fill="#A0503D"/>
<path d="M499.468 249.124C499.466 249.413 499.55 249.697 499.709 249.938C499.868 250.179 500.095 250.368 500.361 250.48C500.628 250.593 500.921 250.623 501.205 250.568C501.489 250.513 501.75 250.375 501.955 250.171C502.16 249.968 502.3 249.708 502.358 249.424C502.415 249.141 502.387 248.847 502.277 248.58C502.167 248.313 501.979 248.084 501.739 247.923C501.499 247.762 501.217 247.676 500.927 247.676C500.542 247.676 500.173 247.829 499.9 248.1C499.626 248.371 499.471 248.739 499.468 249.124Z" fill="#683F1D"/>
<path d="M508.36 249.899C508.36 250.188 508.446 250.47 508.606 250.71C508.766 250.95 508.994 251.137 509.261 251.248C509.528 251.358 509.821 251.387 510.104 251.331C510.387 251.274 510.647 251.135 510.851 250.931C511.055 250.727 511.194 250.467 511.251 250.184C511.307 249.901 511.278 249.608 511.168 249.341C511.057 249.074 510.87 248.846 510.63 248.686C510.39 248.526 510.108 248.44 509.819 248.44C509.432 248.44 509.061 248.594 508.788 248.868C508.514 249.141 508.36 249.512 508.36 249.899Z" fill="#683F1D"/>
<path d="M538.958 262.109C539.243 258.974 542.822 254.653 546.687 257.845" stroke="#934735" stroke-width="0.68" stroke-linecap="round" stroke-linejoin="round"/>
<path d="M539.095 261.334C541.774 256.774 547.166 263.032 540.884 264.286" stroke="#934735" stroke-width="0.68" stroke-linecap="round" stroke-linejoin="round"/>
<path d="M503.629 258.461C502.033 257.72 501.406 256.272 501.543 255.919C501.68 255.565 506.673 251.883 505.715 246.217" stroke="#934735" stroke-width="0.68" stroke-linecap="round" stroke-linejoin="round"/>
<path d="M509.819 239.138C509.363 242.09 516.534 244.975 517.64 243.116C518.586 241.52 510.481 234.84 509.819 239.138Z" fill="#604730"/>
<path d="M497.781 241.087C497.849 241.931 505.544 241.76 505.442 238.807C505.339 235.855 497.587 238.602 497.781 241.087Z" fill="#604730"/>
<path d="M504.382 261.448C507.049 260.746 509.654 259.823 512.168 258.689C512.168 258.689 512.966 263.614 509.819 264.514C509.261 264.675 508.676 264.723 508.099 264.655C507.522 264.588 506.964 264.406 506.458 264.121C505.952 263.835 505.507 263.452 505.151 262.993C504.794 262.534 504.533 262.009 504.382 261.448Z" fill="white" stroke="#934735" stroke-width="0.68" stroke-linecap="round" stroke-linejoin="round"/>
<path d="M544.92 208.221C543.78 211.892 539.459 208.096 539.117 213.34C538.775 218.584 528.31 217.113 525.107 212.017C522.485 207.822 515.052 209.395 510.686 213.83C510.241 212.69 508.326 211.607 508.816 210.273C509.443 208.574 511.096 208.289 513.125 208.221C515.155 208.153 514.71 202.521 513.775 200.993C512.84 199.466 513.559 195.761 516.739 195.977C519.92 196.194 521.128 195.556 521.413 194.062C521.605 193.542 521.902 193.067 522.285 192.667C522.669 192.267 523.13 191.95 523.642 191.736C524.153 191.522 524.703 191.416 525.257 191.424C525.811 191.432 526.357 191.554 526.862 191.782C529.336 193.07 531.422 191.645 532.95 190.232C533.037 190.143 533.133 190.063 533.235 189.992C534.455 193.412 535.344 198.178 540.075 198.599C546.676 199.204 546.06 204.539 544.92 208.221Z" fill="#604730"/>
<path d="M408.633 309.065C409.226 305.303 419.794 302.499 425.938 301.325L428.287 316.51C428.287 316.51 411.392 314.093 408.633 309.065Z" fill="#FCC71F"/>
<path d="M418.46 317.137C417.24 300.698 417.24 286.87 416.898 281.58C416.556 276.29 416.818 270.761 422.986 268.219C422.986 268.219 422.986 263.374 430.019 262.519C430.019 262.519 429.13 258.176 435.013 258.29C435 257.883 435.083 257.479 435.253 257.109C435.423 256.74 435.677 256.415 435.994 256.159C436.311 255.904 436.682 255.726 437.08 255.639C437.477 255.552 437.89 255.558 438.284 255.656C442.138 256.329 443.38 258.689 443.38 258.689C448.487 257.549 451.36 262.895 451.087 267.262C450.813 271.628 450.505 276.382 448.396 280.782C446.287 285.182 443.608 292.467 443.608 292.467L443.779 301.701C443.779 301.701 439.858 331.398 418.46 317.137Z" fill="#B25E47"/>
<path d="M416.898 281.58C416.545 276.347 416.818 270.761 422.986 268.219C422.986 268.219 422.986 263.374 430.019 262.519C430.019 262.519 429.13 258.176 435.013 258.29C435 257.883 435.083 257.479 435.253 257.109C435.423 256.74 435.677 256.415 435.994 256.159C436.311 255.904 436.682 255.726 437.08 255.639C437.477 255.552 437.89 255.558 438.284 255.656C442.138 256.329 443.38 258.689 443.38 258.689C448.487 257.549 451.36 262.895 451.087 267.262" stroke="#934735" stroke-width="0.68" stroke-linecap="round" stroke-linejoin="round"/>
<path d="M443.38 258.689C438.125 261.277 434.26 266.133 435.845 268.516C437.429 270.898 443.392 267.911 444.201 267.148" stroke="#934735" stroke-width="0.68" stroke-linecap="round" stroke-linejoin="round"/>
<path d="M434.568 258.301C436.552 258.563 440.462 260.764 440.462 260.764" stroke="#934735" stroke-width="0.68" stroke-linecap="round" stroke-linejoin="round"/>
<path d="M430.019 262.519C432.323 262.613 434.581 263.196 436.643 264.229" stroke="#934735" stroke-width="0.68" stroke-linecap="round" stroke-linejoin="round"/>
<path d="M435.742 275.276C437.498 273.942 439.014 271.594 438.558 269.416" stroke="#934735" stroke-width="0.68" stroke-linecap="round" stroke-linejoin="round"/>
<path d="M422.94 268.265C427.135 266.543 431.399 264.594 432.664 267.455C433.93 270.317 434.625 279.129 432.664 280.326C430.703 281.523 427.42 280.531 426.862 278.228C426.303 275.926 425.881 272.768 425.881 272.768" stroke="#934735" stroke-width="0.68" stroke-linecap="round" stroke-linejoin="round"/>
<path d="M448.772 239.4C450.539 241.577 449.912 249.284 448.02 251.86" stroke="#934735" stroke-width="0.68" stroke-linecap="round" stroke-linejoin="round"/>
<path d="M444.6 413.82C441.18 420.307 436.278 423.841 429.712 421.64C417.343 417.445 412.418 405.578 410.617 393.984C408.724 381.889 410.206 370.044 410.149 367.582C410.024 362.668 408.679 309.043 408.679 309.043C410.822 309.898 414.071 309.92 418.004 309.179C421 308.585 423.94 307.738 426.793 306.649C432.772 304.357 438.461 301.373 443.745 297.757L443.973 297.597C443.973 297.597 445.045 310.889 446.492 326.165C447.712 339.253 449.217 353.788 450.562 362.645C452.683 377.078 451.44 401.143 444.6 413.82Z" fill="#FED81D"/>
<path d="M444.6 413.82C441.18 420.307 436.278 423.841 429.712 421.64C417.343 417.445 412.418 405.578 410.617 393.984C412.819 397.729 415.418 401.226 418.369 404.415C427.5 414.23 437.042 416.339 444.6 413.82Z" fill="#FCC71F"/>
<path d="M443.939 297.631C443.939 297.631 447.632 343.436 450.528 362.714C452.106 374.974 451.722 387.408 449.388 399.547" stroke="#F7AD2B" stroke-width="0.68" stroke-linecap="round" stroke-linejoin="round"/>
<path d="M574.72 352.741L530.739 334.371C527.27 332.922 523.284 334.559 521.836 338.028L495.719 400.554C494.27 404.022 495.907 408.008 499.376 409.457L543.357 427.828C546.825 429.276 550.811 427.639 552.26 424.171L578.376 361.644C579.825 358.176 578.188 354.19 574.72 352.741Z" fill="#EDEDED"/>
<path d="M569.772 350.664L530.735 334.359C527.267 332.91 523.281 334.547 521.832 338.016L495.715 400.542C494.266 404.011 495.904 407.997 499.372 409.445L538.409 425.751C541.877 427.199 545.863 425.562 547.312 422.094L573.429 359.568C574.878 356.099 573.24 352.113 569.772 350.664Z" fill="#F9F9F9" stroke="#DDDDDD" stroke-width="0.9" stroke-linecap="round" stroke-linejoin="round"/>
<path d="M533.326 344.77C533.326 345.356 533.152 345.929 532.827 346.417C532.501 346.904 532.038 347.284 531.496 347.509C530.955 347.733 530.359 347.792 529.784 347.677C529.209 347.563 528.681 347.281 528.266 346.866C527.852 346.452 527.57 345.923 527.455 345.348C527.341 344.773 527.399 344.178 527.624 343.636C527.848 343.094 528.228 342.631 528.715 342.306C529.203 341.98 529.776 341.806 530.362 341.806C530.752 341.805 531.138 341.88 531.498 342.029C531.859 342.177 532.186 342.395 532.461 342.671C532.737 342.946 532.955 343.274 533.104 343.634C533.252 343.994 533.328 344.381 533.326 344.77Z" fill="#EDEDED"/>
<path d="M538.217 347.7C538.219 347.994 538.134 348.282 537.972 348.528C537.81 348.773 537.578 348.965 537.307 349.078C537.036 349.192 536.737 349.222 536.448 349.165C536.16 349.109 535.895 348.967 535.687 348.759C535.479 348.551 535.338 348.286 535.281 347.998C535.224 347.709 535.254 347.41 535.368 347.139C535.481 346.868 535.673 346.636 535.919 346.474C536.164 346.312 536.452 346.227 536.746 346.229C537.135 346.232 537.508 346.388 537.783 346.663C538.058 346.939 538.214 347.311 538.217 347.7Z" fill="#EDEDED"/>
<path d="M536.051 396.868C533.144 395.854 531.639 390.233 531.251 385.388L542.651 386.734C542.651 386.734 542.731 397.598 536.051 396.868Z" fill="#FCC71F"/>
<path d="M539.881 394.007C536.646 391.698 533.298 389.552 529.849 387.577C528.55 386.87 521.174 386.038 516.044 383.211C512.588 381.258 509.256 379.091 506.069 376.724L504.04 380.498C504.04 380.498 500.05 376.189 499.48 372.301C498.91 368.414 500.483 368.288 501.418 367.456C502.352 366.624 501.771 365.393 501.714 363.386C501.657 361.38 503.367 360.97 503.903 360.263C504.439 359.556 503.96 357.721 503.846 355.247C503.732 352.773 506.673 352.648 507.14 351.234C507.608 349.82 508.03 345.272 512.042 346.457C516.055 347.643 533.52 360.616 534.66 361.209C536.357 361.816 538.094 362.308 539.858 362.68C539.858 362.68 554.154 385.035 539.881 394.007Z" fill="#B25E47"/>
<path d="M506.069 376.724L504.04 380.498C504.04 380.498 500.05 376.189 499.48 372.301C498.91 368.414 500.483 368.288 501.418 367.456C502.352 366.624 501.771 365.393 501.714 363.386C501.657 361.38 503.367 360.97 503.903 360.263C504.439 359.556 503.96 357.721 503.846 355.247C503.732 352.773 506.673 352.648 507.14 351.234C507.608 349.82 508.03 345.272 512.042 346.457" stroke="#934735" stroke-width="0.68" stroke-linecap="round" stroke-linejoin="round"/>
<path d="M506.069 376.724C504.074 375.049 503.663 374.775 503.663 374.775" stroke="#934735" stroke-width="0.68" stroke-linecap="round" stroke-linejoin="round"/>
<path d="M638.776 408.747C635.117 419.987 621.471 429.951 590.36 418.186L588.662 417.525C556.32 404.7 536.039 396.857 536.039 396.857C538.835 385.031 538.835 372.716 536.039 360.89C554.61 366.088 603.721 376.166 621.163 381.284C622.303 381.626 623.443 381.98 624.458 382.424C639.095 387.828 642.31 397.86 638.776 408.747Z" fill="#FED81D"/>
<path d="M588.662 417.525C556.32 404.7 536.051 396.868 536.051 396.868" stroke="#F7AD2B" stroke-width="0.68" stroke-linecap="round" stroke-linejoin="round"/>
<path d="M536.051 360.89C552.9 365.609 594.92 374.342 615.577 379.745" stroke="#F7AD2B" stroke-width="0.68" stroke-linecap="round" stroke-linejoin="round"/>
<path d="M638.776 408.747C635.117 419.987 621.471 429.951 590.36 418.186C590.36 418.186 599.48 407.641 612.374 409.511C625.267 411.38 637.876 406.091 628.003 391.145C626.254 388.486 625.049 385.506 624.458 382.379C639.095 387.828 642.31 397.86 638.776 408.747Z" fill="#FCC71F"/>
<path d="M755.056 310.433C753.854 312.361 752.103 313.885 750.029 314.811C735.562 321.651 702.856 308.632 702.856 308.233C702.856 307.834 696.54 254.22 705.569 234.943C707.267 231.329 709.502 228.935 712.409 228.353C727.354 227.897 740.179 232.97 742.368 243.755C744.557 254.539 738.047 266.965 739.951 274.637C741.855 282.31 749.596 282.469 752.845 284.111C758.727 287.063 764.233 295.192 755.056 310.433Z" fill="#DD6819"/>
<path d="M750.029 314.811C735.562 321.651 702.856 308.632 702.856 308.233C702.856 307.834 696.54 254.22 705.569 234.943C730.01 235.832 734.069 244.849 732.233 257.344C730.284 270.625 721.392 288.83 740.749 301.94C746.586 305.908 749.208 310.422 750.029 314.811Z" fill="#CC5E0D"/>
<path d="M719.021 261.117C722.589 265.118 723.113 270.157 721.643 275.834C720.172 281.512 717.892 289.811 720.719 298.007" stroke="#FF79A0" stroke-width="0.68" stroke-linecap="round" stroke-linejoin="round"/>
<path d="M735.414 256.067C735.232 263.671 732.94 268.903 732.29 276.062C731.641 283.222 736.064 287.348 741.661 289.549C743.983 290.517 745.828 292.365 746.791 294.689C747.755 297.014 747.759 299.625 746.803 301.952" stroke="#FF79A0" stroke-width="0.68" stroke-linecap="round" stroke-linejoin="round"/>
<path d="M731.481 301.063C726.1 294.815 725.051 290.244 728.266 289.765C731.481 289.286 737.808 292.045 737.17 294.815C736.531 297.586 732.439 296.411 732.61 295.055" stroke="#FF79A0" stroke-width="0.68" stroke-linecap="round" stroke-linejoin="round"/>
<path d="M706.298 337.622C691.022 345.602 679.907 337.976 678.471 329.517C677.536 323.977 678.083 311.209 678.403 297.939C678.562 290.996 678.676 283.894 678.471 277.647C678.471 276.667 678.471 275.72 678.471 274.786C678.471 235.296 708.635 244.45 711.086 259.738C712.637 269.439 715.019 288.762 716.182 298.954C717.345 309.145 721.62 329.642 706.298 337.622Z" fill="#FEBD9D"/>
<path d="M678.403 297.939C678.562 290.996 678.676 283.894 678.471 277.647C678.471 276.667 678.471 275.72 678.471 274.786C685.972 274.421 697.851 274.056 697.851 274.056C700.04 289.457 691.262 299.398 678.403 297.939Z" fill="#F4A789"/>
<path d="M624.412 473.602C625.792 475.711 635.812 467.902 638.685 463.342L628.505 449.297C628.505 449.297 620.456 467.48 624.412 473.602Z" fill="#A7CAF0"/>
<path d="M649.139 435.925C661.679 455.065 667.493 461.107 668.393 469.076C669.294 477.044 665.954 496.823 657.096 500.164C648.238 503.504 627.798 489.493 627.023 486.29C626.248 483.086 635.949 484.489 640.486 486.666C640.486 486.666 631.822 475.038 631.822 462.008C631.822 458.668 619.829 452.113 619.829 452.113C619.829 452.113 629.759 422.302 649.139 435.925Z" fill="#FEBD9D"/>
<path d="M800.2 579.964C761.36 566.147 713.56 552.797 663.035 541.625V518.985C663.035 512.863 663.742 502.512 664.654 491.306C665.395 482.049 666.273 472.211 666.934 463.718C667.538 456.581 668.006 450.38 668.211 446.264L683.612 446.105L712.352 445.831L771.028 445.25L780.547 445.159C781.63 472.188 791.103 504.256 797.772 528.595C802.56 545.946 801.317 568.313 800.2 579.964Z" fill="#683F1D"/>
<path d="M767.22 490.28C763.355 502.649 767.471 514.949 774.949 518.985" stroke="#91613D" stroke-width="0.68" stroke-linecap="round" stroke-linejoin="round"/>
<path d="M624.412 390.564L631.355 402.694L652.012 438.786" stroke="#83ADDF" stroke-width="0.68" stroke-linecap="round" stroke-linejoin="round"/>
<path d="M768.816 447.815C765.852 448.419 749.322 448.955 730.501 449.183C702.001 449.479 668.257 448.898 668.257 446.264C668.257 442.138 670.058 438.284 664.905 429.244C659.752 420.204 651.225 413.147 650.461 396.697C649.697 380.247 653.551 361.939 653.551 361.939L645.468 369.919L624.412 390.564L631.355 402.694L652.012 438.786C652.012 438.786 624.161 449.616 624.412 473.602C624.412 473.602 586.256 426.155 574.913 409.91C563.57 393.665 576.452 375.094 594.761 356.011C603.881 346.48 613.901 333.644 623.911 322.837C633.92 312.029 644.009 303.274 653.3 301.94C658.555 301.188 665.84 300.538 673.683 300.014C675.211 299.9 676.75 299.797 678.311 299.706C677.89 315.814 682.541 318.79 682.541 318.79C684.821 320.135 685.06 319.508 685.265 322.21C685.471 324.911 686.725 332.572 688.925 332.572C691.969 332.572 693.929 327.579 696.506 320.351C698.204 311.71 708.875 308.336 712.318 303.639C713.511 301.949 714.345 300.032 714.769 298.007H716.034C718.029 298.498 720.434 299.056 723.068 299.592C729.908 300.983 738.31 302.26 745.127 301.94C754.167 301.53 780.638 302.066 788.515 322.962C788.515 322.962 788.515 323.019 788.515 323.053C788.846 323.942 789.142 324.877 789.416 325.846C789.621 326.61 789.803 327.454 789.963 328.366C794.637 355.68 776.055 446.31 768.816 447.815Z" fill="#C3DCF8"/>
<path d="M743.28 376.371C727.776 381.809 723.626 403.218 727.138 411.836C730.649 420.455 718.667 424.673 707.233 424.673C694.066 424.673 678.414 438.524 685.117 458.337L752.377 427.557L743.28 376.371Z" fill="#A7CAF0"/>
<path d="M790.499 328.571C790.339 328.491 790.157 328.434 789.997 328.366C775.93 322.802 759.457 326.314 748.741 335.206C746.02 337.427 743.666 340.062 741.764 343.015C728.939 363.181 687.694 374.194 674.15 347.757C663.184 326.325 646.79 319.61 623.911 322.848C633.943 312.041 644.009 303.286 653.3 301.952C658.555 301.199 665.84 300.55 673.683 300.025C675.211 299.911 676.75 299.809 678.311 299.717C677.89 315.826 682.541 318.801 682.541 318.801C684.821 320.146 685.06 319.519 685.265 322.221C685.471 324.923 686.725 332.584 688.925 332.584C691.969 332.584 693.929 327.59 696.506 320.363C698.204 311.722 708.875 308.347 712.318 303.65C713.511 301.96 714.345 300.044 714.769 298.019H716.034C718.029 298.509 720.434 299.068 723.068 299.603C729.908 300.994 738.31 302.271 745.127 301.952C754.167 301.541 780.638 302.077 788.515 322.973C788.515 322.973 788.515 323.03 788.515 323.065C789.3 324.853 789.963 326.693 790.499 328.571Z" fill="#D0E5F7"/>
<path d="M692.664 340.176C693.98 340.176 695.047 339.109 695.047 337.793C695.047 336.478 693.98 335.411 692.664 335.411C691.348 335.411 690.281 336.478 690.281 337.793C690.281 339.109 691.348 340.176 692.664 340.176Z" fill="#83ADDF"/>
<path d="M687.614 336.676C688.321 343.083 686.337 354.392 684.821 365.826C683.305 377.26 679.691 392.992 684.821 409.146C689.951 425.3 691.102 430.259 691.239 432.231C691.467 435.731 688.799 439.732 695.434 442.491" stroke="#83ADDF" stroke-width="0.68" stroke-linecap="round" stroke-linejoin="round"/>
<path d="M682.541 318.79C676.202 317.285 671.688 325.014 669.271 331.546C669.032 312.668 671.312 303.992 673.683 300.014C676.054 296.035 678.437 296.788 678.437 296.788C678.368 297.814 678.334 298.783 678.311 299.706C677.89 315.78 682.541 318.79 682.541 318.79Z" fill="#83ADDF"/>
<path d="M723.136 307.025C721.449 317.775 714.712 332.595 714.712 332.595C714.712 332.595 709.354 326.53 705.592 321.947C701.83 317.365 699.652 318.117 696.472 320.374C698.17 311.733 708.841 308.359 712.283 303.662C713.477 301.972 714.311 300.055 714.734 298.03C715.182 296.118 715.381 294.156 715.327 292.193C717.214 292.49 718.965 293.359 720.343 294.682C721.721 296.005 722.66 297.719 723.034 299.592C723.54 302.041 723.575 304.563 723.136 307.025Z" fill="#83ADDF"/>
<path d="M619.294 457.573C620.548 450.802 629.177 438.968 642.869 432.744" stroke="#83ADDF" stroke-width="0.68" stroke-linecap="round" stroke-linejoin="round"/>
<path d="M606.731 375.254C608.742 375.371 610.687 376.012 612.374 377.112C615.794 379.107 619.978 383.063 624.412 390.564" stroke="#83ADDF" stroke-width="0.68" stroke-linecap="round" stroke-linejoin="round"/>
<path d="M653.551 361.939L655.591 353.206" stroke="#83ADDF" stroke-width="0.68" stroke-linecap="round" stroke-linejoin="round"/>
<path d="M645.468 369.884L624.412 390.564C619.978 383.063 615.748 379.107 612.374 377.112C617.834 374.661 620.525 376.895 623.17 378.845C629.713 383.701 635.881 364.481 645.468 369.884Z" fill="#A7CAF0"/>
<path d="M791.479 400.938C789.028 421.321 785.141 440.941 781.128 454.415C773.387 480.362 753.95 481.844 741.399 473.567C734.126 468.757 729.155 460.674 730.136 452.158C730.227 451.315 730.352 450.323 730.501 449.183C732.781 431.718 740.407 380.464 745.001 351.325C745.811 345.845 747.062 340.439 748.741 335.16C754.714 316.92 764.701 311.277 776.99 312.542C782.074 313.067 785.836 316.852 788.515 322.928C788.515 322.928 788.515 322.985 788.515 323.019C789.289 324.812 789.94 326.655 790.465 328.537C795.412 345.682 794.705 373.92 791.479 400.938Z" fill="#C3DCF8"/>
<path d="M791.479 400.938C789.028 421.321 785.141 440.941 781.128 454.415C773.387 480.362 753.95 481.844 741.399 473.567C743.751 471.302 746.695 469.745 749.892 469.076C764.062 466.408 772.51 455.544 770.412 432.744C768.77 415.439 784.012 404.985 791.479 400.938Z" fill="#A7CAF0"/>
<path d="M790.499 328.571C790.339 328.491 790.157 328.434 789.997 328.366C775.93 322.802 759.457 326.314 748.741 335.206C754.714 316.966 764.701 311.323 776.99 312.588C782.074 313.112 785.836 316.897 788.515 322.973C788.515 322.973 788.515 323.03 788.515 323.065C789.3 324.853 789.963 326.693 790.499 328.571Z" fill="#D0E5F7"/>
<path d="M733.921 424.673C737.227 401.873 741.901 371.378 745.001 351.325C745.811 345.845 747.062 340.439 748.741 335.16C749.992 331.159 751.739 327.329 753.939 323.76" stroke="#83ADDF" stroke-width="0.68" stroke-linecap="round" stroke-linejoin="round"/>
<path d="M637.397 518.974C631.4 520.114 625.324 511.165 623.318 505.658C621.311 500.152 637.328 497.678 637.328 497.678C637.328 497.678 642.538 514.699 637.397 518.974Z" fill="#A7CAF0"/>
<path d="M622.565 479.028C610.846 482.938 583.372 496.595 581.902 497.735C580.431 498.875 576.053 508.862 575.894 510.367C575.734 511.871 573.944 527.467 576.863 528.47C579.781 529.473 581.252 522.998 581.902 518.985C582.521 516.003 583.505 513.108 584.831 510.367C584.831 510.367 583.053 516.671 585.652 518.985C587.157 520.33 590.52 518.985 590.52 518.985C590.52 518.985 591.341 523.1 596.71 521.151C596.71 521.151 596.391 525.517 599.925 526.372C603.459 527.227 606.765 523.283 608.167 520.957C608.669 520.171 607.403 517.868 605.762 517.868C605.762 517.868 607.221 516.922 611.61 516.922C615.999 516.922 621.232 517.172 624.583 512.099C627.935 507.026 631.72 504.61 634.843 503.8L622.565 479.028Z" fill="#FEBD9D"/>
<path d="M575.894 510.367C575.723 511.883 573.944 527.467 576.863 528.47C579.781 529.473 581.252 522.998 581.902 518.985C582.521 516.003 583.505 513.108 584.831 510.367C584.831 510.367 583.053 516.671 585.652 518.985C587.157 520.33 590.52 518.985 590.52 518.985C590.52 518.985 591.341 523.1 596.71 521.151C596.71 521.151 596.391 525.517 599.925 526.372C603.459 527.227 606.765 523.283 608.167 520.957C608.669 520.171 607.403 517.868 605.762 517.868" stroke="#EF8A66" stroke-width="0.68" stroke-linecap="round" stroke-linejoin="round"/>
<path d="M606.412 517.982C605.52 517.852 604.61 517.914 603.744 518.164" stroke="#EF8A66" stroke-width="0.68" stroke-linecap="round" stroke-linejoin="round"/>
<path d="M604.576 515.28C603.698 517.56 602.604 521.048 603.037 522.052" stroke="#EF8A66" stroke-width="0.68" stroke-linecap="round" stroke-linejoin="round"/>
<path d="M596.722 522.006C596.643 517.366 597.825 512.792 600.142 508.771" stroke="#EF8A66" stroke-width="0.68" stroke-linecap="round" stroke-linejoin="round"/>
<path d="M590.52 518.985C589.665 515.565 592.298 506.867 594.407 504.336" stroke="#EF8A66" stroke-width="0.68" stroke-linecap="round" stroke-linejoin="round"/>
<path d="M584.82 510.367C585.151 508.087 585.618 501.851 589.027 498.967" stroke="#EF8A66" stroke-width="0.68" stroke-linecap="round" stroke-linejoin="round"/>
<path d="M763.88 476.52C758.807 479.188 746.643 483.77 731.755 488.969C693.599 502.273 637.545 519.589 637.397 518.974C637.192 518.119 632.267 495.661 615.372 480.692C615.372 480.692 693.758 443.232 718.873 431.501C733.955 424.456 757.028 412.486 769.454 423.875C769.91 424.285 770.344 424.718 770.754 425.163C784.149 439.265 781.379 467.297 763.88 476.52Z" fill="#C3DCF8"/>
<path d="M763.88 476.52C758.807 479.188 746.643 483.77 731.755 488.969C734.388 482.129 740.122 470.911 749.892 469.076C764.062 466.408 772.51 455.544 770.412 432.744C770.17 430.212 770.297 427.659 770.788 425.163C784.149 439.265 781.379 467.297 763.88 476.52Z" fill="#A7CAF0"/>
<path d="M615.372 480.692C615.372 480.692 693.758 443.232 718.873 431.502C726.077 428.139 735.106 423.647 743.953 421.116" stroke="#83ADDF" stroke-width="0.68" stroke-linecap="round" stroke-linejoin="round"/>
<path d="M631.822 478.048C641.296 489.664 649.139 510.367 649.139 510.367" stroke="#83ADDF" stroke-width="0.68" stroke-linecap="round" stroke-linejoin="round"/>
<path d="M717.185 228.479C724.288 231.899 730.159 246.844 717.584 256.067C705.01 265.289 710.744 243.265 711.052 242.843C711.36 242.421 711.759 228.992 717.185 228.479Z" fill="#FED81D"/>
<path d="M717.63 247.483C717.093 248.51 716.356 249.421 715.464 250.162C715.464 250.162 701.944 259.453 693.519 254.494C685.094 249.535 674.777 237.77 674.777 237.77C670.981 234.943 668.906 232.731 668.154 230.257C667.788 228.982 667.722 227.64 667.96 226.336C668.656 221.935 673.33 212.086 688.207 215.734C688.207 215.734 690.817 212.428 696.187 214.423C701.556 216.418 706.23 222.277 706.23 222.277C706.23 222.277 711.463 220.419 717.174 228.479C721.677 234.84 720.161 243.037 717.63 247.483Z" fill="#DD6819"/>
<path d="M717.63 247.483C717.093 248.51 716.356 249.421 715.464 250.162C715.464 250.162 701.944 259.453 693.519 254.494C685.094 249.535 674.777 237.77 674.777 237.77C670.981 234.943 668.906 232.731 668.154 230.257C668.838 223.087 672.144 217.957 679.109 220.1C688.982 223.144 693.747 228.604 703.574 225.971C703.574 225.971 706.059 245.374 717.63 247.483Z" fill="#CC5E0D"/>
<path d="M673.045 223.987C674.823 222.049 678.46 222.129 683.863 227.749" stroke="#FF79A0" stroke-width="0.68" stroke-linecap="round" stroke-linejoin="round"/>
<path d="M685.015 215.129C689.079 215.978 692.921 217.672 696.289 220.1" stroke="#FF79A0" stroke-width="0.68" stroke-linecap="round" stroke-linejoin="round"/>
<path d="M706.241 222.3C707.154 223.43 707.92 224.671 708.521 225.994" stroke="#FF79A0" stroke-width="0.68" stroke-linecap="round" stroke-linejoin="round"/>
<path d="M709.08 264.127C697.076 281.021 681.572 290.233 672.212 282.367C665.304 276.587 665.258 265.084 666.889 255.816C667.359 253.12 667.995 250.455 668.792 247.836C668.861 247.608 668.941 247.391 669.009 247.175C671.939 238.055 676.271 224.375 683.248 227.213C683.248 227.213 688.697 232.093 699.025 229.995C699.025 229.995 693.724 249.375 705.728 251.655C705.728 251.655 711.029 244.815 717.128 248.452C723.227 252.088 723.296 263.978 709.08 264.127Z" fill="#FEBD9D"/>
<path d="M684.137 244.085C684.135 244.374 684.218 244.658 684.377 244.899C684.536 245.141 684.763 245.329 685.03 245.442C685.296 245.554 685.59 245.584 685.874 245.529C686.157 245.474 686.418 245.336 686.624 245.133C686.829 244.929 686.969 244.669 687.026 244.386C687.083 244.102 687.055 243.808 686.945 243.541C686.835 243.274 686.648 243.045 686.408 242.884C686.168 242.723 685.885 242.638 685.596 242.638C685.211 242.638 684.841 242.79 684.568 243.061C684.295 243.332 684.14 243.7 684.137 244.085Z" fill="#683F1D"/>
<path d="M674.15 244.085C674.148 244.374 674.232 244.658 674.391 244.899C674.55 245.141 674.777 245.329 675.043 245.442C675.31 245.554 675.603 245.584 675.887 245.529C676.171 245.474 676.432 245.336 676.637 245.133C676.843 244.929 676.983 244.669 677.04 244.386C677.097 244.102 677.069 243.808 676.959 243.541C676.849 243.274 676.662 243.045 676.421 242.884C676.181 242.723 675.899 242.638 675.61 242.638C675.225 242.638 674.855 242.79 674.582 243.061C674.308 243.332 674.153 243.7 674.15 244.085Z" fill="#683F1D"/>
<path d="M705.66 251.701C704.564 252.935 703.823 254.444 703.517 256.067" stroke="#EF8A66" stroke-width="0.68" stroke-linecap="round" stroke-linejoin="round"/>
<path d="M707.256 256.682C709.787 250.982 715.236 250.64 718.371 253.183" stroke="#EF8A66" stroke-width="0.68" stroke-linecap="round" stroke-linejoin="round"/>
<path d="M708.544 254.494C713.389 251.267 716.228 259.738 709.889 259.738" stroke="#EF8A66" stroke-width="0.68" stroke-linecap="round" stroke-linejoin="round"/>
<path d="M671.152 237.724C671.528 238.933 679.315 238.237 679.132 235.513C678.836 231.853 670.445 235.433 671.152 237.724Z" fill="#DD6819"/>
<path d="M684.969 235.319C684.718 237.77 692.242 239.879 692.949 238.591C693.656 237.302 685.436 230.668 684.969 235.319Z" fill="#DD6819"/>
<path d="M675.325 252.157C675.097 249.877 676.305 247.312 677.947 246.73C679.588 246.149 682.13 244.564 681.56 238.648" stroke="#EF8A66" stroke-width="0.68" stroke-linecap="round" stroke-linejoin="round"/>
<path d="M677.069 256.682C679.987 256.682 684.536 254.471 685.265 253.57C685.265 253.57 685.607 260.581 681.64 261.083C678.3 261.516 677.069 256.682 677.069 256.682Z" fill="white" stroke="#EF8A66" stroke-width="0.68" stroke-linecap="round" stroke-linejoin="round"/>
<path d="M710.072 268.014C712.584 268.014 714.62 265.978 714.62 263.465C714.62 260.953 712.584 258.917 710.072 258.917C707.56 258.917 705.523 260.953 705.523 263.465C705.523 265.978 707.56 268.014 710.072 268.014Z" fill="white"/>
<path d="M700.245 249.751C701.077 251.803 699.185 254.516 695.993 255.816C692.801 257.116 689.552 256.511 688.708 254.459C687.865 252.407 689.768 249.683 692.96 248.383C696.152 247.084 699.401 247.699 700.245 249.751Z" fill="#F4AF90"/>
<path d="M672.68 254.767C671.768 256.34 669.362 256.739 666.866 255.907C667.337 253.211 667.973 250.546 668.77 247.927L669.294 248.212C672.281 249.899 673.797 252.852 672.68 254.767Z" fill="#F4AF90"/>
<path d="M521.265 551.076L578.812 537.852L629.519 555.203L580.032 572.109L521.265 551.076Z" stroke="#DDDDDD" stroke-width="0.9" stroke-linecap="round" stroke-linejoin="round"/>
<path d="M554.587 540.28V551.076C554.587 554.667 563.821 557.574 575.221 557.574C586.621 557.574 595.867 554.667 595.867 551.076V540.28H554.587Z" fill="#DDDDDD" stroke="#DDDDDD" stroke-width="0.9" stroke-miterlimit="10"/>
<path d="M575.221 546.265C563.183 546.265 555.1 543.176 555.1 540.28C555.1 537.385 563.183 534.295 575.221 534.295C587.26 534.295 595.342 537.396 595.342 540.28C595.342 543.164 587.26 546.265 575.221 546.265Z" fill="#F9F9F9"/>
<path d="M575.221 534.808C587.374 534.808 594.829 538 594.829 540.28C594.829 542.56 587.374 545.752 575.221 545.752C563.069 545.752 555.613 542.56 555.613 540.28C555.613 538 563.069 534.808 575.221 534.808ZM575.221 533.782C563.821 533.782 554.587 536.689 554.587 540.28C554.587 543.871 563.821 546.778 575.221 546.778C586.621 546.778 595.867 543.871 595.867 540.28C595.867 536.689 586.621 533.782 575.221 533.782Z" fill="#DDDDDD"/>
<path d="M537.316 551.395C537.316 552.102 538.536 552.683 540.041 552.683C541.546 552.683 542.765 552.102 542.765 551.395C542.765 550.688 541.546 550.107 540.041 550.107C538.536 550.107 537.316 550.688 537.316 551.395Z" fill="#DDDDDD"/>
<path d="M577.82 566.261C577.82 566.968 579.04 567.549 580.545 567.549C582.05 567.549 583.258 566.968 583.258 566.261C583.258 565.554 582.038 564.973 580.545 564.973C579.052 564.973 577.82 565.554 577.82 566.261Z" fill="#DDDDDD"/>
<path d="M611.781 554.975C611.781 555.682 613.001 556.263 614.506 556.263C616.01 556.263 617.23 555.682 617.23 554.975C617.23 554.268 616.01 553.687 614.506 553.687C613.001 553.687 611.781 554.268 611.781 554.975Z" fill="#DDDDDD"/>
<path d="M22.5834 503.8C63.5208 502.523 108.3 501.737 155.04 501.6C197.083 501.486 240.722 501.919 284.521 503.048C293.694 503.276 302.879 503.542 312.075 503.846C366.943 505.636 421.675 508.554 473.533 512.909C482.281 513.623 490.941 514.383 499.514 515.189C528.584 517.959 558.942 522.029 589.357 527.216C614.118 531.388 638.913 536.233 663.081 541.591C713.64 552.763 761.406 566.113 800.246 579.929C840.419 594.236 871.04 609.068 885.301 622.588" stroke="#EDEDED" stroke-width="1.81" stroke-linecap="round" stroke-linejoin="round"/>
<path d="M524.628 564.3C506.217 573.83 398.156 601.92 398.156 601.92L388.261 592.127L325.105 529.667C325.105 529.667 385.377 517.56 396.617 518.917C406.011 520.057 490.291 542.526 517.218 555.967C522.485 558.657 525.985 563.605 524.628 564.3Z" stroke="#EDEDED" stroke-width="0.9" stroke-linecap="round" stroke-linejoin="round"/>
<path d="M327.841 539.368C372.723 531.776 390.404 526.828 396.743 528.561C403.081 530.294 488.729 554.599 487.293 554.975C447.085 565.508 375.413 582.278 375.413 582.278L327.841 539.368Z" stroke="#DDDDDD" stroke-width="0.9" stroke-linecap="round" stroke-linejoin="round"/>
<path d="M524.628 564.3C506.217 573.83 398.156 601.92 398.156 601.92L388.261 592.127L517.218 556.035C522.485 558.657 525.985 563.605 524.628 564.3Z" fill="#EDEDED"/>
<path d="M262.645 497.701C251.45 476.908 258.176 442.776 277.031 440.222C295.887 437.669 320.887 462.065 330.611 449.958C341.168 436.768 332.584 373.122 332.663 361.619L379.962 356.82C379.962 356.82 370.945 443.289 383.302 453.355C390.541 459.249 399.011 458.428 404.084 447.781C408.644 438.113 415.085 430.327 426.634 439.288C426.634 439.288 433.109 424.228 458.189 430.168C483.269 436.107 468.768 465.029 462.931 468.928C462.931 468.928 474.331 478.994 470.717 491.728C467.104 504.461 448.715 510.31 448.715 510.31C448.715 510.31 456.342 527.695 441.089 533.235C425.836 538.775 415.94 536.826 405.92 533.235C395.899 529.644 378.56 520.695 368.801 534.432C359.043 548.169 291.293 550.951 262.645 497.701Z" fill="#F9F9F9" stroke="#EDEDED" stroke-width="1.81" stroke-linecap="round" stroke-linejoin="round"/>
<path d="M327.841 385.195C318.562 387.828 313.853 397.734 311.391 407.55C308.929 417.365 309.909 419.007 307.173 416.601C304.243 414.025 297.893 395.705 301.302 367.752C303.833 346.993 313.169 337.406 318.55 333.552C320.09 350.709 323.177 367.692 327.773 384.294C327.813 384.593 327.836 384.893 327.841 385.195Z" fill="#EDEDED" stroke="#EDEDED" stroke-width="1.81" stroke-linecap="round" stroke-linejoin="round"/>
<path d="M404.483 416.602C401.747 419.007 402.694 417.343 400.254 407.55C397.814 397.757 393.095 387.828 383.815 385.195C383.819 384.897 383.838 384.601 383.872 384.305C388.484 367.695 391.575 350.7 393.106 333.53C398.487 337.417 407.824 347.005 410.354 367.73C413.752 395.705 407.425 414.025 404.483 416.602Z" fill="#EDEDED" stroke="#EDEDED" stroke-width="1.81" stroke-linecap="round" stroke-linejoin="round"/>
<path d="M393.106 333.518C391.575 350.689 388.484 367.684 383.872 384.294C383.439 385.776 383.017 387.235 382.573 388.649H329.072C328.628 387.224 328.195 385.753 327.773 384.26C323.177 367.658 320.09 350.675 318.55 333.518C316.088 307.298 316.612 278 322.335 249.899C323.076 246.286 323.874 242.82 324.729 239.525C335.833 196.479 355.828 178.809 355.828 178.809C355.828 178.809 375.835 196.479 386.927 239.525C387.782 242.82 388.592 246.286 389.321 249.899C395.044 278 395.58 307.253 393.106 333.518Z" fill="#F9F9F9" stroke="#DDDDDD" stroke-width="1.81" stroke-linecap="round" stroke-linejoin="round"/>
<path d="M386.927 239.525H324.729C335.833 196.479 355.828 178.809 355.828 178.809C355.828 178.809 375.835 196.479 386.927 239.525Z" fill="#DDDDDD" stroke="#DDDDDD" stroke-width="0.9" stroke-miterlimit="10"/>
<path d="M370.694 291.475C368.745 293.433 366.428 294.987 363.877 296.047C361.326 297.107 358.591 297.652 355.828 297.652C353.066 297.652 350.33 297.107 347.779 296.047C345.228 294.987 342.912 293.433 340.963 291.475C337.037 287.526 334.834 282.184 334.834 276.615C334.834 271.047 337.037 265.705 340.963 261.755C342.912 259.798 345.228 258.244 347.779 257.184C350.33 256.124 353.066 255.578 355.828 255.578C358.591 255.578 361.326 256.124 363.877 257.184C366.428 258.244 368.745 259.798 370.694 261.755C371.967 263.025 373.071 264.454 373.977 266.008C376.317 270.02 377.264 274.694 376.67 279.3C376.076 283.907 373.975 288.188 370.694 291.475Z" fill="#EDEDED" stroke="#F9F9F9" stroke-width="1.81" stroke-linecap="round" stroke-linejoin="round"/>
<path d="M373.977 266.007L345.215 294.77C343.663 293.857 342.234 292.75 340.963 291.475C339.692 290.201 338.593 288.768 337.691 287.211L366.442 258.461C367.993 259.374 369.422 260.481 370.694 261.755C371.967 263.025 373.071 264.454 373.977 266.007Z" fill="#F9F9F9"/>
<path d="M355.828 329.05C346.845 340.974 342.148 401.291 355.828 417.582C369.531 401.28 364.8 340.974 355.828 329.05Z" fill="#DDDDDD" stroke="#DDDDDD" stroke-width="0.9" stroke-miterlimit="10"/>
<path d="M370.694 291.475C368.745 293.433 366.428 294.987 363.877 296.047C361.326 297.107 358.591 297.652 355.828 297.652C353.066 297.652 350.33 297.107 347.779 296.047C345.228 294.987 342.912 293.433 340.963 291.475C337.037 287.526 334.834 282.184 334.834 276.615C334.834 271.047 337.037 265.705 340.963 261.755C342.912 259.798 345.228 258.244 347.779 257.184C350.33 256.124 353.066 255.578 355.828 255.578C358.591 255.578 361.326 256.124 363.877 257.184C366.428 258.244 368.745 259.798 370.694 261.755C371.967 263.025 373.071 264.454 373.977 266.008C376.317 270.02 377.264 274.694 376.67 279.3C376.076 283.907 373.975 288.188 370.694 291.475Z" stroke="#DDDDDD" stroke-width="1.81" stroke-linecap="round" stroke-linejoin="round"/>
<path d="M462.931 468.939C460.645 470.642 458.254 472.2 455.772 473.602" stroke="#EDEDED" stroke-width="1.81" stroke-linecap="round" stroke-linejoin="round"/>
<path d="M443.54 477.044C437.589 470.991 423.1 473.693 420.808 487.635C418.517 501.577 430.749 513.752 448.715 510.367" stroke="#EDEDED" stroke-width="1.81" stroke-linecap="round" stroke-linejoin="round"/>
<path d="M348.441 421.162C350.721 437.304 349.809 465.337 349.672 467.115" stroke="#EDEDED" stroke-width="1.81" stroke-linecap="round" stroke-linejoin="round"/>
<path d="M378.48 490.36C369.588 481.057 365.347 475.038 365.347 435.526" stroke="#EDEDED" stroke-width="1.81" stroke-linecap="round" stroke-linejoin="round"/>
<path d="M216.144 426.143L343.493 476.03L405.156 598.99L268.094 538.547L209.144 429.142L216.144 426.143Z" fill="#EDEDED"/>
<path d="M209.144 429.141L336.494 479.028L398.156 601.988L261.106 541.545L209.144 429.141Z" fill="#F9F9F9" stroke="#DDDDDD" stroke-width="0.9" stroke-linecap="round" stroke-linejoin="round"/>
</svg>
